<?xml version="1.0" encoding="utf-8"?>
<!-- Generator: Adobe Illustrator 24.1.2, SVG Export Plug-In . SVG Version: 6.00 Build 0)  -->
<svg version="1.1" id="Слой_1" xmlns="http://www.w3.org/2000/svg" xmlns:xlink="http://www.w3.org/1999/xlink" x="0px" y="0px"
	 viewBox="0 0 60 68" style="enable-background:new 0 0 60 68;" xml:space="preserve">
<style type="text/css">
	.st0{fill:#55FFDB;}
	.st1{fill:#FFFFFF;}
	.st2{fill-rule:evenodd;clip-rule:evenodd;fill:#55FFDB;}
	.st3{fill:#144270;}
	.st4{fill:#0F3254;}
	.st5{fill:#FFCB9C;}
	.st6{fill:#EAA663;}
	.st7{fill:#FFDEBB;}
	.st8{fill:#2E384C;}
	.st9{fill:#F9C478;}
	.st10{fill:#79B7E0;}
	.st11{fill:#8FBDE2;}
	.st12{fill:#9FC6ED;}
	.st13{fill:#A5D3F2;}
	.st14{fill:#FFF3E1;}
	.st15{fill:#E5674E;}
	.st16{fill:#E55437;}
	.st17{fill:#DD2B14;}
</style>
<g>
	<path class="st0" d="M30.5,56.5c0,0.3-0.2,0.5-0.5,0.5s-0.5-0.2-0.5-0.5c-0.1-3.2-1.8-5.2-4.8-6.1C14.5,48,7,38.9,7,28
		C7,15.3,17.3,5,30,5s23,10.3,23,23c0,10.9-7.5,20-17.7,22.4C32.3,51.3,30.7,53.4,30.5,56.5L30.5,56.5z"/>
</g>
<path class="st1" d="M30,68c-2.2,0-4-1.8-4-4c0-2.2,1.8-4,4-4s4,1.8,4,4C34,66.2,32.2,68,30,68z"/>
<path class="st2" d="M30,66c1.1,0,2-0.9,2-2s-0.9-2-2-2s-2,0.9-2,2S28.9,66,30,66z"/>
<g>
	<g>
		<g>
			<g>
				<path class="st3" d="M28.9,43.8h-4.1l-0.5-5.9c-0.2-2.8,4.8-10.5,4.8-10.5v13.2L28.9,43.8z"/>
				<path class="st4" d="M30.4,43.8h3.2l0.5-5.9c0.2-2.8-5-10.5-5-10.5v13.5L30.4,43.8z"/>
				<g>
					<g>
						<polygon class="st5" points="26.8,22.5 29.2,23.6 29.2,18 27.7,18 						"/>
					</g>
					<g>
						<polygon class="st6" points="31.7,22.5 29.2,23.6 29.2,18 30.8,18 						"/>
					</g>
					<g>
						<path class="st5" d="M29.2,19.6L29.2,19.6v-9.2h0.6c1.4,0,2.9,1.5,2.9,2.7l-0.5,3.5C32,17.9,30.7,19.1,29.2,19.6z"/>
					</g>
					<g>
						<path class="st5" d="M31.9,16.9L31.9,16.9c0.3,0,0.6-0.2,0.6-0.6l0.3-1.6c0-0.2-0.2-0.3-0.3-0.2L32,14.8L31.9,16.9z"/>
					</g>
					<g>
						<path class="st7" d="M29.2,19.6L29.2,19.6v-9.2l0,0c-1.4,0-3.5,1.5-3.5,2.7l0.5,3.5C26.4,17.9,27.6,19.1,29.2,19.6z"/>
					</g>
					<g>
						<path class="st7" d="M26.5,16.9L26.5,16.9c-0.3,0-0.6-0.2-0.6-0.6l-0.3-1.6c0-0.2,0.2-0.3,0.3-0.2l0.5,0.4L26.5,16.9z"/>
					</g>
					<g>
						<path class="st8" d="M27.2,12.1c0,0-0.3-0.2-0.4,0.9c-0.2,1-0.3,2.2-0.3,2.2s-0.6,0-0.8-1.5c-0.2-1.5,0.4-2.5,0.8-2.8
							c0.3-0.3,1.3-0.8,2.7-0.8c1.4,0,2.1,0.4,2.9,1.1c0.8,0.7,0.7,1.4,0.6,2.1c-0.1,0.7-0.6,2.1-0.6,2.1s-0.2-1.2-0.7-2
							c-0.5-0.7-0.9-1.1-0.9-1.1s1,1,1.4,1.4C32.3,14.1,27.2,12.1,27.2,12.1z"/>
					</g>
				</g>
				<g>
					<g>
						<g>
							<g>
								<path class="st9" d="M30.8,39.7c1.6,0.1,1.4,0.3,1.6,0.1c0.4-0.4-1.3-0.1-2.3-2.1c-0.2-0.4,0.3-0.4,0.6-0.1
									c0.4,0.3,0.7,0.9,0.9,0.5c0,0-0.4-1.5-1.8-1.7c-1.1-0.1-0.9,0-1-0.2L28,37.6C28,37.6,29.1,39.5,30.8,39.7z"/>
							</g>
						</g>
					</g>
				</g>
				<path class="st10" d="M33.6,35.6l0.5-8.6c0-1.4,2.3-6.4-1-6h-1.7c-0.9,0.9-1.4,1.3-2.2,2.2v12.4C31.5,35.6,31.4,35.6,33.6,35.6z
					"/>
				<path class="st10" d="M43.2,31.4l0.4-1.9l-4.8-1.1c0,0-2.4-4.9-2.6-5.5c-0.4-0.9-1.1-1.5-2.1-1.7l0,0v4.9l3.1,4
					C38.2,32.2,43.2,31.4,43.2,31.4z"/>
				<g>
					<path class="st11" d="M28.1,24.3c0,0-1.1-0.6-2.1-2.2c-0.3-0.5-0.5-0.8-0.7-1.1h-0.1c-3.3-0.4-1,4.6-1,6l0.5,8.6
						c1.7,0,3.1,0.1,4.4,0V23.2L28.1,24.3z"/>
					<path class="st12" d="M27,21h-0.7h-1c0.1,0.3,0.3,0.7,0.7,1.1c1,1.6,2.1,2.2,2.1,2.2l1-1.1C28.3,22.4,27.9,21.9,27,21z"/>
					<path class="st11" d="M31.3,21H32h1c-0.1,0.3-0.3,0.7-0.7,1.1c-1,1.6-2.1,2.2-2.1,2.2l-1-1.1C30,22.4,30.4,21.9,31.3,21z"/>
				</g>
				<polygon class="st3" points="28.1,24.3 28.9,25.2 28.1,29.1 29.2,30.6 29.2,23 				"/>
				<polygon class="st4" points="30.2,24.3 29.4,25.2 30.2,29.1 29.2,30.6 29.2,23 				"/>
				<path class="st13" d="M28.9,36.3L28,37.6c0,0-6.8-2-6.7-4.6c0.2-4.3,0.6-9.3,1-10.2c0.4-0.9,1.1-1.5,2.1-1.7l0,0V27l-0.6,5.2
					L28.9,36.3z"/>
			</g>
			<rect x="30.8" y="24.8" class="st1" width="2.5" height="1.6"/>
			
				<rect x="33.7" y="26.3" transform="matrix(0.1709 -0.9853 0.9853 0.1709 3.5026 65.9246)" class="st8" width="14.4" height="9.1"/>
			
				<rect x="34.4" y="27" transform="matrix(0.1709 -0.9853 0.9853 0.1709 3.5582 65.8928)" class="st14" width="13.1" height="7.7"/>
			
				<rect x="41.5" y="22.1" transform="matrix(0.1706 -0.9853 0.9853 0.1706 10.6379 61.9213)" class="st10" width="1.2" height="5"/>
			<path class="st9" d="M46.1,31.2h-0.2c-0.8-0.1-1.3-0.9-1.2-1.7l0,0c0.1-0.8,0.9-1.3,1.7-1.2h0.2c0.2,0,0.3,0.2,0.3,0.3L46.4,31
				C46.4,31.1,46.3,31.2,46.1,31.2z"/>
			<g>
				<path class="st10" d="M40.1,24.3l4,0.7l-0.6,0.5c-0.1,0.1-0.3,0.2-0.5,0.2h-0.1L41,25.4c-0.3,0-0.5-0.2-0.6-0.4L40.1,24.3
					L40.1,24.3z M39.7,24l0.5,1.1c0.2,0.3,0.4,0.5,0.8,0.6l1.8,0.3c0.1,0,0.1,0,0.2,0c0.2,0,0.5-0.1,0.7-0.3l1-0.9L39.7,24L39.7,24z
					"/>
			</g>
		</g>
	</g>
	<g>
		<g>
			<polygon class="st15" points="32.5,40.6 31.6,39.9 32,39.6 			"/>
		</g>
		<g>
			<g>
				<path class="st16" d="M28.8,35.5l-0.2,0.2c0.5,0.8,1.1,1.7,1.7,2.5l0.3-0.2L28.8,35.5z"/>
			</g>
			<g>
				<path class="st15" d="M29,35.3l-0.2,0.2l1.7,2.4l0.3-0.2C30.2,36.9,29.6,36.1,29,35.3z"/>
			</g>
			<g>
				<path class="st15" d="M31.8,39.7l0.2-0.2c-0.4-0.6-0.8-1.3-1.2-1.9l-0.3,0.2L31.8,39.7z"/>
			</g>
			<g>
				<path class="st16" d="M30.2,38.1c0.4,0.6,0.9,1.2,1.3,1.8l0.2-0.2l-1.3-1.8L30.2,38.1z"/>
			</g>
		</g>
		<g>
			<g>
				<path class="st17" d="M31.1,37.3C31,37.3,31,37.3,31.1,37.3c-0.1,0-0.2,0-0.4-0.2c-0.1-0.1-0.3-0.4-0.5-0.8
					c-0.1-0.2-0.2-0.4-0.3-0.5c-0.1-0.1-0.4-0.5-0.5-0.6l-0.7,0.5c-0.1,0-0.1,0-0.2,0c0,0,0-0.1,0-0.2l0.9-0.6l0.1,0.1
					c0,0,0.5,0.5,0.6,0.7c0,0.1,0.2,0.3,0.3,0.5c0.2,0.3,0.4,0.7,0.5,0.8s0.2,0.1,0.2,0.1S31.1,37.1,31.1,37.3
					C31.1,37.2,31.1,37.2,31.1,37.3z"/>
			</g>
		</g>
	</g>
	<g>
		<g>
			<g>
				<g>
					<path class="st9" d="M30.8,39.7c1.6,0.1,1.4,0.3,1.6,0.1c0.4-0.4-1.4-0.4-2.4-2c-0.3-0.4-1-1.3-1.1-1.5L28,37.6
						C28,37.6,29.1,39.5,30.8,39.7z"/>
				</g>
			</g>
		</g>
	</g>
</g>
</svg>
