<?xml version="1.0" encoding="utf-8"?>
<!-- Generator: Adobe Illustrator 24.1.2, SVG Export Plug-In . SVG Version: 6.00 Build 0)  -->
<svg version="1.1" id="Слой_1" xmlns="http://www.w3.org/2000/svg" xmlns:xlink="http://www.w3.org/1999/xlink" x="0px" y="0px"
	 viewBox="0 0 60 68" style="enable-background:new 0 0 60 68;" xml:space="preserve">
<style type="text/css">
	.st0{fill:#FF5E55;}
	.st1{fill:#FFFFFF;}
	.st2{fill-rule:evenodd;clip-rule:evenodd;fill:#FF5E55;}
	.st3{fill:#EBAF93;}
	.st4{fill:#F1F1F1;}
	.st5{fill:#4A7E98;}
	.st6{opacity:0.5;fill:#4A7E98;enable-background:new    ;}
	.st7{opacity:0.5;fill:#EBAF93;enable-background:new    ;}
	.st8{fill:#5B9ABB;}
	.st9{fill:#4E4E4E;}
	.st10{fill:#CACACA;}
</style>
<g>
	<path class="st0" d="M30.5,56.5c0,0.3-0.2,0.5-0.5,0.5s-0.5-0.2-0.5-0.5c-0.1-3.2-1.8-5.2-4.8-6.1C14.5,48,7,38.9,7,28
		C7,15.3,17.3,5,30,5s23,10.3,23,23c0,10.9-7.5,20-17.7,22.4C32.3,51.3,30.7,53.4,30.5,56.5L30.5,56.5z"/>
</g>
<path class="st1" d="M30,68c-2.2,0-4-1.8-4-4c0-2.2,1.8-4,4-4s4,1.8,4,4C34,66.2,32.2,68,30,68z"/>
<path class="st2" d="M30,66c1.1,0,2-0.9,2-2s-0.9-2-2-2s-2,0.9-2,2S28.9,66,30,66z"/>
<g>
	<g>
		<path class="st3" d="M33,22.8v0.8c-0.3,0.4-0.3,0.8-0.1,1.3l0.1,0.7L32.9,26c0,0.3,0.2,0.3,0.4,0.2l-0.2,0.2l-0.4,0.5l-0.5,0.2
			c-0.2,0.1-0.1,0.2,0,0.2c-0.1,0.1,0,0.2,0.1,0.3l0.4-0.2c0,0.2,0.1,0.3,0.3,0.2l0.7-0.6c0.3-0.4,0.5-0.8,0.6-1.2
			c0-0.7-0.1-1.4-0.3-2.1l0.1-1L33,22.8z"/>
		<path class="st4" d="M31.5,15.9l1.6,8.8c0.5,0,0.9,0.1,1.2-0.6c-0.6-2.9-0.6-6.5-0.7-9.1c-0.1-1.2-1.2-2.7-2.5-2.5L31.5,15.9z"/>
	</g>
	<path d="M32.2,40.5C32,40.8,32,41.4,32,42.2c0.2,0.7,0.9,0.7,1.5,0.8c1.2,0.2,1.7,1.1,3.3,1.1c0.9,0,1.5-0.2,1.7-0.8
		c0-0.3-0.1-0.5-0.5-0.8c0,0-2.1-0.9-2.2-1s-1-0.7-1-0.8S34.4,39,34.4,39h-2.3L32.2,40.5z"/>
	<path class="st5" d="M35.1,40.8c-0.9,0.6-2.2,1.1-2.8,0.8c-0.1-0.1-0.2-0.2-0.3-0.4c0-0.2,0-0.5-0.1-0.7c-0.5-2.5-0.7-4.8-0.3-6.9
		l-1.2-3.9v-0.1l-0.3-0.9v-0.1c0-2.4,1-3.3,2.7-3c0.1,0,0.2,0,0.3,0.1c0.1,0,0.2,0,0.2,0c0.1,0,0.2,0.1,0.3,0.1l0.2,1.4l1,5.9
		C35.2,35.3,34.7,38.8,35.1,40.8z"/>
	<path class="st6" d="M32.4,41.6c-0.1-0.1-0.2-0.2-0.3-0.4C32,41,32,40.7,31.9,40.5c-0.5-2.5-0.7-4.8-0.3-6.9l-1.2-3.9v-0.1
		c-0.1,0.4-0.2,0.9-0.2,1.2c0,0.3-0.1,0.5-0.2,0.8l-0.1-2.5l0.3-0.3l1.6-2c0,0.4,0,0.7-0.1,1.1c0,1.9,0.2,3.8,0.6,5.9
		C31.8,35.6,32.1,38.6,32.4,41.6z"/>
	<path d="M25.3,44c-0.2,0.7-0.3,0.9-0.2,1.4c0.1,0.3,0.2,0.4,0.3,0.7c0.1,0.4,0.1,1.2,0.8,1.6c0.8,0.6,2.3,0.7,2.8,0
		c0-0.3-0.2-1-0.6-1.6l-0.8-1.5v-1.4l-2.2-0.5L25.3,44z"/>
	<path class="st5" d="M32.9,24.9c0,0.2,0,0.4-0.1,0.5c0,0.1,0,0.2-0.1,0.3c-0.2,0.7-0.6,1.3-1.1,1.9c-0.5,0.7-1.1,1.2-1.3,1.6
		c0,0,0,0.1,0,0.2c-0.1,0.4-0.2,0.9-0.2,1.2c0,0.3-0.1,0.5-0.2,0.8c-0.3,1.7-0.7,3.6-1.2,5.5c-0.6,2.7-0.9,5.2-1,7.6
		c-0.8,0.4-1.8,0.3-2.3-0.1c-0.2-0.1-0.4-0.3-0.4-0.6c0-1.1,0-2.2,0-3.2c0.1-2.1,0.2-4,0.7-4.8V25.2l1-0.1l0.6-0.1l3.6-0.4h0.4h0.2
		l0.9-0.1L32.9,24.9z"/>
	<path class="st5" d="M33.7,25.7l-1,0.1l-6.1,0.7l-0.8,0.1c0-0.2-0.2-3.4-0.2-3.4l-0.2-2.3v-0.4L25,15.8c1.1-1.2,2.4-2.2,3.8-3.1
		l2.9,0.1c1,0.7,1.2,1.4,1.5,3.1c0,0-0.2,5.3,0,6.6C33.3,22.6,33.7,25.6,33.7,25.7z"/>
	<path class="st4" d="M32.8,16.1c-0.7,1-2.2,1.6-4,2.1c-0.2-2-1-3.5-2.5-3.6c0.8-0.8,1.8-1.4,2.7-2.1l2.4-0.1
		C32.2,13.5,32.7,15,32.8,16.1z"/>
	<path class="st4" d="M28,22.5c-0.6,0.3-1.4,0.3-2.2,0l-0.4-1.7l-0.5-4.6c0.1-0.5,0.6-0.8,0.8-1.1c0.8,0.1,1.5,0.6,1.8,1.9
		C28.2,19.5,28.2,21.2,28,22.5z"/>
	<path class="st6" d="M27.2,24.7c-0.1,0.5-0.1,3.5,0.5,5.1c-0.5,1.4-0.7,3-0.6,6.2c-1.2,1.8-1.5,4.9-1.5,8.5
		c-0.2-0.1-0.4-0.3-0.4-0.6c0-1.1,0-2.2,0-3.2c0.1-2.1,0.2-4,0.7-4.8v-9.3c0-0.1-0.2-3.4-0.2-3.4l-0.2-2.3l1.7-2
		C27.2,20.3,27.2,24.7,27.2,24.7z"/>
	<g>
		<g>
			<path class="st3" d="M30.6,14.9c-0.1,0.2-0.2,0.3-0.3,0.3c-1.4,0.4-2.5-1.1-2.3-2.1c0.1-0.9,0.2-1.4,0.2-1.4l2.6,0.6
				c0,0,0,0.2,0,0.6C30.9,13.6,30.9,14.4,30.6,14.9z"/>
			<path class="st7" d="M30.6,14.9C30.5,15,30.3,15,30.2,15c-1.2,0-1.6-2.3-1.6-2.3l2.3,0.2C30.9,13.6,30.9,14.4,30.6,14.9z"/>
			<path class="st3" d="M28.4,12.2c0,0,0.3,1.1,0.8,1.6s1.3,0.7,1.6,0.7c0.3,0,0.5,0,0.7-0.2s0.3-2.4,0.3-2.4c0-0.8,0-1.1-0.1-1.5
				c-0.1-0.7-0.6-2.2-2.6-1.9c-1,0.1-1.6,0.8-1.7,1.7c-0.1,0.7,0.4,1.9,0.4,1.9L28.4,12.2z"/>
			<path class="st7" d="M31.1,13.7c-1.2,0-2.5-2.4-2.5-2.4l3.2-0.2C31.9,12.8,31.9,13.7,31.1,13.7z"/>
			<path d="M27.9,12.1l0.9,0.5l0.1-0.6c0-0.3,0.2-0.5,0.5-0.5c0.5,0,1.1,0,1.8-0.3c0.6-0.3,0.7-0.7,0.7-0.7c0.3-1.2-1.3-2.2-2.5-2.1
				c-1.5,0-2.1,1-2.1,1.9C27.3,11.1,27.9,12.1,27.9,12.1z"/>
		</g>
		<path class="st8" d="M30.9,11.1c-0.5,0.3-1.1,0.5-1.7,0.6c0,0,0,0,0.1,0c1,0.6,2.3,1.2,3.6,0.4c1.4-0.8,0.3-1.5-0.7-2.1
			c0,0,0,0-0.1,0C31.8,10.4,31.5,10.8,30.9,11.1z"/>
		<path class="st5" d="M29.2,11.7c-0.8,0-1.4-0.3-1.8-0.7c0,0-0.7-2.1,1.1-2.8c3-1.1,3.4,1.8,3.4,1.8C31.8,11,30.7,11.4,29.2,11.7z"
			/>
		<path class="st3" d="M28.1,11.4c-0.1-0.1-0.3-0.1-0.4,0.1c0,0.1-0.1,0.2,0,0.2c0,0.1,0,0.2,0.1,0.2c0.1,0.1,0.1,0.3,0.2,0.4
			c0.1,0.1,0.1,0.2,0.3,0.2c0.1,0,0.3,0.1,0.3,0c0.1-0.1,0.1-0.4,0-0.5C28.5,11.8,28.3,11.5,28.1,11.4z"/>
	</g>
	<g>
		<path class="st9" d="M30.3,32C30.2,32,30.2,32,30.3,32l-0.5,0.1c0,0,0,0-0.1,0L29.6,32l-0.2-0.5c0,0,0,0,0-0.1l0.3-0.1l0,0
			l0.3-0.1c0,0,0-0.1,0-0.2c-0.1-0.1-0.2-0.2-0.3-0.3c-0.3-0.2-0.6-0.2-0.8-0.1l-0.2,0.1c-0.1,0-0.1,0-0.2-0.1l-4.2-2.7
			c-0.1-0.1-0.2-0.2-0.3-0.3c-0.1-0.3-0.3-0.6-0.6-0.7l-0.1-0.1c-0.2-0.1-0.4-0.1-0.5,0l-0.3,0.1c-0.2,0.1-0.3,0.3-0.3,0.6
			c0,0.1,0,0.1,0.1,0.1l0,0h0.6c0,0,0,0,0.1,0l0.1,0.1l0.2,0.5H23l0,0l-0.3,0.1l0,0c-0.1,0-0.1,0.1,0,0.2s0.2,0.2,0.4,0.3
			c0.3,0.2,0.5,0.2,0.7,0.1l0.2-0.1c0.1,0,0.1,0,0.2,0.1l4.2,2.7c0.1,0.1,0.2,0.2,0.3,0.3c0.1,0.2,0.2,0.4,0.4,0.6
			c0.1,0.1,0.1,0.1,0.2,0.2c0.2,0.2,0.5,0.2,0.6,0.1l0.3-0.1c0.2-0.1,0.3-0.3,0.3-0.6C30.3,32.1,30.3,32.1,30.3,32z"/>
		<g>
			<path class="st10" d="M29.3,30.9c0.1,0.1,0.2,0.2,0.3,0.3c0.1,0.1,0,0.2,0,0.2l-0.5,0.1c-0.1,0-0.1,0.1,0,0.2l0.2,0.5
				c0,0.1,0.1,0.1,0.1,0.1s0,0,0.1,0l0.5-0.1l0,0l0.1,0.1c0,0.6-0.5,0.8-1,0.5c-0.1,0-0.1-0.1-0.2-0.2c-0.2-0.2-0.3-0.4-0.4-0.6
				c-0.1-0.1-0.2-0.2-0.3-0.3L24,29.1c-0.1-0.1-0.2-0.1-0.3,0c-0.2,0.2-0.5,0.1-0.8-0.1c-0.1-0.1-0.3-0.2-0.4-0.3
				c-0.1-0.1-0.1-0.2,0-0.2H23c0.1,0,0.1-0.1,0.1-0.2L23,27.8c0-0.1-0.1-0.1-0.1-0.1s0,0-0.1,0h-0.6l0,0l-0.1-0.1
				c0-0.5,0.5-0.7,0.8-0.6c0,0,0.1,0,0.1,0.1c0.2,0.2,0.4,0.4,0.6,0.7c0.1,0.1,0.2,0.3,0.3,0.3l4.2,2.7c0.1,0.1,0.2,0.1,0.3,0
				C28.7,30.6,29,30.7,29.3,30.9z"/>
		</g>
	</g>
	<path class="st3" d="M24.5,27.1l0.1,1c-0.2,0.3-0.4,0.8-0.4,1.5c0,0.2,0.2,0.4,0.4,0.4l0.1,0.4c0.1,0.1,0.2,0.2,0.4,0.1
		c0.2,0.2,0.4,0.2,0.6,0.2l0.4,0.3l0.4,0.2c0.3,0.1,0.4,0.1,0.4-0.1l-0.6-0.6l0.1-0.7l0.3-0.2l0.3,0.2l0.2,0.1
		c0.1-0.1,0.1-0.5,0.1-0.5c-0.2-0.5-0.6-0.9-1-1.2L26,26.9L24.5,27.1z"/>
	<g>
		<path class="st4" d="M24.9,16.1c-0.4,1-1,4-1.2,6.5l0.6,5.4c0.3,0.6,1.2,0.6,1.8-0.1l0.1-4.8l0.9-4.4
			C27.6,16.9,25.7,14.8,24.9,16.1z"/>
	</g>
</g>
</svg>
