<svg width="60" height="68" viewBox="0 0 60 68" fill="none" xmlns="http://www.w3.org/2000/svg"><g filter="url(#e52e95270498b8a219f4e40e07d7300b__a)"><path d="M30.51 56.523a.5.5 0 0 1-.499.477c-.29 0-.51-.21-.522-.477-.144-3.168-1.755-5.217-4.831-6.147C14.53 47.968 7 38.863 7 28 7 15.297 17.297 5 30 5s23 10.297 23 23c0 10.863-7.531 19.968-17.658 22.376-3.076.93-4.687 2.979-4.831 6.147z" fill="#F43"/></g><path d="M30 68a4 4 0 1 1 0-8 4 4 0 0 1 0 8z" fill="#fff"/><path fill-rule="evenodd" clip-rule="evenodd" d="M30 66a2 2 0 1 0 0-4 2 2 0 0 0 0 4z" fill="#F43"/><path fill-rule="evenodd" clip-rule="evenodd" d="M30 34a6 6 0 1 0 0-12 6 6 0 0 0 0 12z" fill="#fff"/><defs><filter id="e52e95270498b8a219f4e40e07d7300b__a" x="1" y="1" width="58" height="64" filterUnits="userSpaceOnUse" color-interpolation-filters="sRGB"><feFlood flood-opacity="0" result="BackgroundImageFix"/><feColorMatrix in="SourceAlpha" values="0 0 0 0 0 0 0 0 0 0 0 0 0 0 0 0 0 0 127 0"/><feOffset dy="2"/><feGaussianBlur stdDeviation="3"/><feColorMatrix values="0 0 0 0 0.882353 0 0 0 0 0.282353 0 0 0 0 0.227451 0 0 0 0.6 0"/><feBlend in2="BackgroundImageFix" result="effect1_dropShadow"/><feBlend in="SourceGraphic" in2="effect1_dropShadow" result="shape"/></filter></defs></svg>