<?xml version="1.0" encoding="utf-8"?>
<!-- Generator: Adobe Illustrator 24.1.2, SVG Export Plug-In . SVG Version: 6.00 Build 0)  -->
<svg version="1.1" id="Слой_1" xmlns="http://www.w3.org/2000/svg" xmlns:xlink="http://www.w3.org/1999/xlink" x="0px" y="0px"
	 viewBox="0 0 60 68" style="enable-background:new 0 0 60 68;" xml:space="preserve">
<style type="text/css">
	.st0{fill:#31D8CC;}
	.st1{fill:#FFFFFF;}
	.st2{fill-rule:evenodd;clip-rule:evenodd;fill:#31D8CC;}
	.st3{fill:#CCE0E0;}
	.st4{fill:#E0E0E0;}
	.st5{fill:#2B2B29;}
	.st6{fill:#42413F;}
	.st7{fill:#363533;}
	.st8{fill:#8F8C87;}
	.st9{fill:#99BCC4;}
	.st10{opacity:0.3;fill:#B7C6C9;enable-background:new    ;}
	.st11{fill:#B7C6C9;}
	.st12{fill:#89A9B0;}
	.st13{fill:#97BAC2;}
	.st14{fill:#00728A;}
	.st15{fill:#ADC7C5;}
	.st16{fill:#63727D;}
	.st17{fill:#536069;}
	.st18{fill:#566363;}
	.st19{fill:#FFAD7A;}
	.st20{fill:#FFD3DB;}
	.st21{fill:#FF8FA4;}
	.st22{fill:url(#SVGID_1_);}
	.st23{fill:#6C3A00;}
	.st24{fill:#0096B5;}
	.st25{fill:url(#SVGID_2_);}
	.st26{fill:#007C96;}
	.st27{enable-background:new    ;}
	.st28{clip-path:url(#SVGID_4_);enable-background:new    ;}
	.st29{fill:#394141;}
	.st30{fill:#373F3F;}
	.st31{fill:#353D3D;}
	.st32{fill:#90A8AA;}
	.st33{fill:#2F3636;}
	.st34{fill:#687A7B;}
	.st35{fill:#7D9193;}
	.st36{fill:#567B7F;}
	.st37{fill:#546D6F;}
	.st38{fill:#48676A;}
	.st39{fill:#7BAFB5;}
	.st40{fill:#3D4646;}
	.st41{fill:#B2D0D1;}
	.st42{fill:#97ABAC;}
	.st43{fill:#2A3131;}
	.st44{fill:#6D7C7C;}
	.st45{fill:#74979A;}
	.st46{fill:#839495;}
	.st47{fill:#1F2323;}
	.st48{fill:#658386;}
	.st49{clip-path:url(#SVGID_6_);enable-background:new    ;}
	.st50{fill:#879D9E;}
	.st51{fill:#83989A;}
	.st52{fill:#7E9495;}
	.st53{fill:#7A8F90;}
	.st54{fill:#768A8B;}
	.st55{fill:#728586;}
	.st56{fill:#6E8182;}
	.st57{fill:#6A7C7D;}
	.st58{fill:#8FBABE;}
	.st59{fill:#BBD3D4;}
	.st60{fill:#648E92;}
	.st61{fill:#6C7E7F;}
	.st62{fill:#495C5C;}
	.st63{fill:#546A6A;}
	.st64{fill:#617A7A;}
	.st65{fill:#789797;}
	.st66{fill:#728081;}
	.st67{clip-path:url(#SVGID_8_);enable-background:new    ;}
	.st68{fill:#6F7E7E;}
	.st69{clip-path:url(#SVGID_10_);enable-background:new    ;}
	.st70{fill:#6A7E7E;}
	.st71{fill:#677A7A;}
	.st72{fill:#647676;}
	.st73{fill:#556565;}
	.st74{fill:#8DA7A7;}
	.st75{clip-path:url(#SVGID_12_);enable-background:new    ;}
	.st76{fill:#546363;}
	.st77{fill:#576767;}
	.st78{fill:#5A6B6B;}
	.st79{fill:#5D6F6F;}
	.st80{fill:#617373;}
	.st81{clip-path:url(#SVGID_14_);enable-background:new    ;}
	.st82{fill:#8DA0A0;}
	.st83{fill:#899B9C;}
	.st84{fill:#859697;}
	.st85{fill:#809192;}
	.st86{fill:#7C8C8D;}
	.st87{fill:#788888;}
	.st88{fill:#748383;}
	.st89{fill:#768687;}
	.st90{fill:#728787;}
	.st91{fill:#596A6A;}
	.st92{clip-path:url(#SVGID_16_);enable-background:new    ;}
	.st93{clip-path:url(#SVGID_18_);enable-background:new    ;}
	.st94{fill:#707E7F;}
	.st95{fill:#546464;}
	.st96{fill:#637575;}
	.st97{fill:#485A5A;}
	.st98{clip-path:url(#SVGID_20_);enable-background:new    ;}
	.st99{fill:#475A5A;}
	.st100{fill:#4A5D5D;}
	.st101{fill:#4D6161;}
	.st102{fill:#4F6464;}
	.st103{fill:#526868;}
	.st104{fill:#556B6B;}
	.st105{fill:#586F6F;}
	.st106{fill:#5A7272;}
	.st107{fill:#648386;}
	.st108{fill:#6B797A;}
	.st109{clip-path:url(#SVGID_22_);enable-background:new    ;}
	.st110{fill:#8BA3A4;}
	.st111{clip-path:url(#SVGID_24_);enable-background:new    ;}
	.st112{fill:#76898B;}
	.st113{clip-path:url(#SVGID_26_);enable-background:new    ;}
	.st114{clip-path:url(#SVGID_28_);enable-background:new    ;}
	.st115{clip-path:url(#SVGID_30_);enable-background:new    ;}
	.st116{fill:#2D3333;}
	.st117{fill:#2E3535;}
	.st118{fill:#303737;}
	.st119{fill:#323939;}
	.st120{fill:#343B3B;}
	.st121{fill:#343C3C;}
	.st122{fill:#667778;}
	.st123{fill:#4B5656;}
	.st124{fill:#2B3232;}
	.st125{opacity:0.4;fill:#566363;enable-background:new    ;}
	.st126{fill:#BFBFBF;}
	.st127{fill:#B0CCCC;}
	.st128{fill:#B0745F;}
	.st129{fill:#B06E56;}
	.st130{fill:#524C4A;}
	.st131{fill:#402200;}
	.st132{opacity:0.2;}
	.st133{fill:#403A35;}
</style>
<g>
	<path class="st0" d="M30.5,56.5c0,0.3-0.2,0.5-0.5,0.5s-0.5-0.2-0.5-0.5c-0.1-3.2-1.8-5.2-4.8-6.1C14.5,48,7,38.9,7,28
		C7,15.3,17.3,5,30,5s23,10.3,23,23c0,10.9-7.5,20-17.7,22.4C32.3,51.3,30.7,53.4,30.5,56.5L30.5,56.5z"/>
</g>
<path class="st1" d="M30,68c-2.2,0-4-1.8-4-4c0-2.2,1.8-4,4-4s4,1.8,4,4C34,66.2,32.2,68,30,68z"/>
<path class="st2" d="M30,66c1.1,0,2-0.9,2-2s-0.9-2-2-2s-2,0.9-2,2S28.9,66,30,66z"/>
<g>
	<ellipse class="st3" cx="28.7" cy="34.9" rx="13.7" ry="5.1"/>
	<ellipse class="st4" cx="28.7" cy="34.8" rx="12.2" ry="4.5"/>
	<g>
		<path class="st5" d="M37.4,35.5c-0.1,0-0.2-0.1-0.2-0.2c-0.3-2.2,0.3-3.4,0.7-4.2c0.2-0.3,0.3-0.6,0.3-0.9c0-0.1,0.1-0.2,0.2-0.2
			c0.1,0,0.2,0.1,0.2,0.2c0,0.3-0.2,0.7-0.4,1.1c-0.4,0.8-1,1.9-0.7,3.9C37.6,35.3,37.5,35.5,37.4,35.5L37.4,35.5z"/>
	</g>
	<path class="st6" d="M44.1,24.9c-0.6,0.8-1.6,5.7-4.1,5.4c-0.3,0-2,0.6-2,0.6l0.7-4.4L44.1,24.9z"/>
	<path class="st7" d="M42.3,24.6c-0.3,1-1.1,1-2.1,0.5c-0.2-0.1-0.3-0.2-0.5-0.2c-1.8-1-3.9-3.1-3.9-3.1s4.2-4.1,4.9-3.8
		c0.1,0,0.2,0.1,0.3,0.2c0.8,0.4,2,1.3,2,1.3c0.2,0.1,0.6,0.2,1,0.3c0.9,0.3,2.1,0.9,2.7,2C47.2,22.7,43.1,21.7,42.3,24.6z"/>
	<path class="st6" d="M46.7,21.8c-0.3-0.4-3.3-0.6-4.6,2.7c0,0,1.6,0.5,1.9,1c0,0,0.8-1.5,1.4-1.5C45.9,24,47.5,22.9,46.7,21.8z"/>
	<path class="st7" d="M42.1,24.5c0,0-0.6,2.9-1.5,3.2c-0.9,0.3-2.2,0.6-2.2,0.6S34.3,25.5,42.1,24.5z"/>
	<path class="st8" d="M43.9,20.4c-0.2,1-0.9,2.1-1.1,2.8c-0.2,0.6-1.2,2.4-2.6,1.9C40,25,39.9,25,39.7,24.9c-1.6-1-1.1-5.8,1.2-6.7
		c0.8,0.4,2,1.3,2,1.3c0.2,0.1,0.6,0.2,1,0.3C44,20,44,20.2,43.9,20.4z"/>
	<path class="st9" d="M39.4,27.9c0,0,0,0.3,0,0.7c-0.1,2.3-0.4,9.4-2.1,9.2c-1.4-0.1-1.7-0.7-3.2-1.2c-0.6-0.2-1.5-0.4-2.8-0.6
		c-2-0.3-3.4,0.1-4.5,0.7c-0.8,0.4-1.5,0.8-2.3,1.1s-1.7-0.2-2-1c-0.8-2.2-2.8-4.4-2.8-4.4s-0.2-4.3-0.4-7c-0.1-0.9-0.1-1.6-0.1-2
		l6.3,2.9L39.4,27.9z"/>
	<path class="st10" d="M39.4,28.2c-0.1,2.3-0.4,9.4-2.1,9.2c-1.4-0.1-1.7-0.7-3.2-1.2c-0.6-0.2-1.5-0.4-2.8-0.6
		c-2-0.3-3.4,0.1-4.5,0.7c-0.8,0.4-1.5,0.8-2.3,1.1s-1.7-0.2-2-1c-0.8-2.2-2.8-4.4-2.8-4.4s-0.2-4.3-0.4-7c0-0.7-0.1-1.3-0.1-1.7
		l0,0c0,0.3,0.1,1.1,0.1,2c0.2,2.7,0.4,7,0.4,7s2,2.2,2.8,4.4c0.3,0.8,1.2,1.3,2,1s1.5-0.7,2.3-1.1c1.2-0.5,2.6-0.9,4.5-0.7
		c1.3,0.2,2.2,0.4,2.8,0.6c1.5,0.5,1.8,1.1,3.2,1.2c1.7,0.2,2.1-7,2.1-9.2c0-0.4,0-0.7,0-0.7C39.4,28,39.4,28.1,39.4,28.2z"/>
	<path class="st11" d="M39.4,27.9c0,0,0,0.3,0,0.7c-2.9,0.6-8.2-0.5-9.4-0.9c-1.7-0.6-6.8,0.9-7.9,1.2c-1.1,0.3-1.6-1-1.9-2.1
		c-0.1-0.4-0.5-1-1-1.5c-0.1-0.9-0.1-1.6-0.1-2l6.3,2.9L39.4,27.9z"/>
	<path class="st12" d="M44.6,26.6c0.2,3.1-11,1.3-13,0.7c-2-0.6-7.8,0.9-9.1,1.2c-1.3,0.3-1.9-1-2.2-2.1c-0.3-1.1-3.3-3.2-3.6-3.3
		c-2.1-1.6,10.6-3,11.9-2.9c1.2,0,2.7-0.7,3.6-0.3l0,0c0,0,0.1,0,0.2,0.1c0.2,0.1,0.4,0.5,0.2,1.6c0,0,0.4,0.1,0.9,0.1
		c0.1,0,0.2,0,0.3,0s0.1,0,0.2,0c0.1,0,0.1,0,0.2,0h0.1h0.1c1.3,1,2.9,2,4.7,2.1c0.5,0,1,0.1,1.4,0.2C43,24.3,44.6,26,44.6,26.6z"/>
	<path class="st13" d="M44.7,26.1c0.2,2.9-11,1.2-13,0.7s-7.8,0.8-9.1,1.1c-1.3,0.3-1.9-0.9-2.2-2c-0.3-1-3.3-2.9-3.6-3.1
		c-2.1-1.4,10.6-2.7,11.9-2.7c1.2,0,2.7-0.7,3.6-0.3l0,0c0,0,0.1,0,0.2,0.1c0.2,0.1,0.4,0.4,0.2,1.5c0,0,0.4,0.1,0.9,0
		c0.1,0,0.2,0,0.3,0s0.1,0,0.2,0c0.1,0,0.1,0,0.2,0h0.1h0.1c1.3,0.9,2.9,1.8,4.7,1.9c0.5,0,1,0.1,1.4,0.2
		C43.1,23.9,44.7,25.5,44.7,26.1z"/>
	<path class="st14" d="M42.3,18.8L42.3,18.8v0.3c-0.1-0.1-0.2-0.2-0.3-0.2c0,0-2.3,5.1-1.8,5.4s0.9,1,1.3,0.5c0.3-0.3,1-1.3,1.4-2.2
		l0,0c0,0,0.5-1.5,0.6-2.3C43.6,19.5,42.3,18.8,42.3,18.8z"/>
	<path class="st15" d="M32.3,19.8L32.3,19.8C32.3,19.8,32.2,19.8,32.3,19.8C32.2,19.8,32.2,19.8,32.3,19.8
		C32.2,19.8,32.3,19.8,32.3,19.8z"/>
	<path class="st15" d="M34.4,21.3L34.4,21.3h-0.2c-0.1,0-0.1,0-0.2,0c-0.1,0-0.1,0-0.2,0c-0.1,0-0.2,0-0.3,0c-0.5,0-0.9,0-0.9,0
		c0.3-1.1,0-1.4-0.2-1.5c0.4,0.2,1,0.8,1.9,1.4C34.3,21.3,34.3,21.3,34.4,21.3z"/>
	<ellipse class="st3" cx="30.9" cy="22.3" rx="2.9" ry="1.2"/>
	<path class="st3" d="M42.3,24.9c-0.1,0.5-0.9,0.8-1.7,0.6c-0.9-0.1-1.5-0.7-1.5-1.2c0.1-0.5,0.9-0.8,1.7-0.6
		C41.8,23.9,42.4,24.4,42.3,24.9z"/>
	<g>
		<path class="st16" d="M28.7,22.3c0-0.3,0.1-1.5,1.9-1.5c1.8,0,1.7,1,1.7,1.2s-0.8,0.8-2.1,0.7C29,22.7,28.7,22.3,28.7,22.3z"/>
		<path class="st17" d="M29.2,22.5c0-0.3,0.1-1.5,1.9-1.5c0.3,0,0.5,0,0.7,0.1c-0.3-0.1-0.6-0.2-1.1-0.2c-1.8,0-1.9,1.2-1.9,1.5
			c0,0,0.1,0.2,0.7,0.3C29.2,22.5,29.2,22.5,29.2,22.5z"/>
		<g>
			<path class="st18" d="M29.2,22.5L29.2,22.5C29.2,22.5,29.1,22.4,29.2,22.5c-0.1-0.1,0.1-1.1,0.7-1.2c0,0,0.1,0,0.1,0.1
				c0,0,0,0.1-0.1,0.1C29.5,21.5,29.3,22.4,29.2,22.5C29.3,22.5,29.3,22.5,29.2,22.5z"/>
		</g>
		<path class="st19" d="M32.1,20.1c-0.1,0-2,0-2.7,1.2c-0.4,0.8,0.7,0.8,0.8,0.6c0.2-0.2,0.9-0.9,1.2-0.7c0.3,0.1-0.1,0.4,0,0.7
			c0.1,0.3,0.3,0,0.4-0.3s0.3-0.6,0.5-0.5C32.5,21.1,32.5,20,32.1,20.1z"/>
	</g>
	<path class="st20" d="M31.9,20c0.1,0.1,0.5,0.9,0.3,1.2h0.5c0,0,0.3-0.8,0.1-1.1c-0.2-0.3-0.4-0.3-0.4-0.3L31.9,20z"/>
	<path class="st21" d="M42.2,18.8l-1.6-1.1c0,0-0.6,0.5-0.2,1.2C40.8,19.7,42.2,18.8,42.2,18.8z"/>
	
		<linearGradient id="SVGID_1_" gradientUnits="userSpaceOnUse" x1="-50.1339" y1="783.1125" x2="-51.5889" y2="784.5676" gradientTransform="matrix(0.9931 -0.1174 0.1174 0.9931 -0.1859 -765.9703)">
		<stop  offset="1.351350e-02" style="stop-color:#D47A61"/>
		<stop  offset="1" style="stop-color:#FFAD7A"/>
	</linearGradient>
	<path class="st22" d="M41.1,17.7c-0.1,0.4-0.5,0.5-1,0.9c0,0,1,1.4,1.4,1c0,0,0.6-1.2,0.8-1.4L41.1,17.7z"/>
	<path class="st19" d="M44.2,17.3c-0.1,0.1-0.2,0.2-0.3,0.3c-0.1,0.1-0.2,0.2-0.4,0.3c-0.5,0.3-1.2,0.5-2.6,0.1l-0.1-0.1
		c-0.3-1.1,0.3-1.9,0.6-2.2c0,0,0,0,0.1-0.1l0,0c0.1-0.1,0.2-0.2,0.3-0.3l0,0l0,0c0.2-0.3,0.5-0.5,0.6-0.8c0.1-0.1,0.1-0.2,0.1-0.3
		c0.1,0,0.2,0,0.3-0.1c0.2,0.1,0.4,0.5,1,0.9C44.9,15.7,44.7,16.8,44.2,17.3z"/>
	<path class="st23" d="M44.9,15.9c-0.1,1,0.1,0.8-0.6,1.4c-0.1,0.1-0.2,0.2-0.3,0.3c-0.1,0.1-0.3,0.2-0.4,0.2c-0.3,0-0.5,0-0.5,0
		c0.2-0.1,1-1.2,0.8-1.7s-0.2-0.8-0.4-1.3c-0.4,0.2-0.9,0.3-1.2,0.3c-0.2,0-0.4-0.1-0.4-0.1s0,0,0-0.1c0.1-0.6,0.4-0.9,0.8-1
		c0.1,0,0.2,0,0.3-0.1c0.5,0,1.1,0.2,1.5,0.5C44.5,14.5,45,14.5,44.9,15.9z"/>
	<path class="st24" d="M40.5,18.8l-0.7-0.3c0.2-0.3,0.4-0.5,0.6-0.8v-0.1l-0.3-0.1H40c-0.5,0-1.4,0.2-2.1,0.5
		c-0.6,0.3-1.7,1.3-2.6,1.2c-0.8-0.1-2.8,0.5-3.1,0.6l0,0c0,0,0.1,0,0.2,0.1c0.2,0.1,0.4,0.4,0.2,1.5c0,0,0.4,0.1,0.9,0
		c0.1,0,0.3,0,0.4,0l0,0c0.1,0,0.1,0,0.2,0h0.1c-0.1,0-0.2,0-0.3,0c0.1,0,0.2,0,0.4,0h0.1c1.3,0.9,2.9,1.8,4.7,1.9
		c0.5,0,1,0.1,1.4,0.2l2.1-3.7L40.5,18.8z"/>
	<path class="st20" d="M40.6,18.8L40.6,18.8l-1.2,0.1l0.6-1.4h0.1l0.3,0.1l0.3,0.1C40.6,17.7,40.5,18.3,40.6,18.8z"/>
	<polygon class="st20" points="40.7,18.8 42.2,18.8 42.2,19.7 40.3,19.7 	"/>
	
		<linearGradient id="SVGID_2_" gradientUnits="userSpaceOnUse" x1="-85.9435" y1="756.6516" x2="-84.6105" y2="752.8303" gradientTransform="matrix(1.1369 -0.1309 0.1184 1.0285 50.1595 -769.021)">
		<stop  offset="0" style="stop-color:#FFAD7A"/>
		<stop  offset="0.9865" style="stop-color:#F78F72"/>
	</linearGradient>
	<path class="st25" d="M43.3,17c-0.3-0.1-1.1,0.8-1.4,1.5c-0.3,0.7-0.7,1.3-0.7,2.1l1.5-0.7c0,0-0.1-0.7,0.1-0.9
		C43.1,18.6,44.3,17.1,43.3,17z"/>
	<path class="st24" d="M41.4,19.2l1.2,0.4L42,23.4c-0.1,0.4-0.1,0.8-0.3,1.1c-0.3,0.3-0.7,0.7-1.2,0.6c-1.1-0.2-1.1-0.8-0.8-1.9
		C40.1,22.1,41.4,19.2,41.4,19.2z"/>
	<path class="st26" d="M38.4,18.8c-0.4,0.3-0.7,0.6-1.1,0.9c-0.2,0.2-0.4,0.3-0.5,0.5c-0.1,0.1-0.2,0.2-0.2,0.3
		c-0.1,0.1-0.2,0.2-0.3,0.2c-0.5,0.2-0.9,0.4-1.4,0.5c-0.2,0-0.3,0.1-0.5,0.1h-0.1h-0.1c-0.1,0-0.1,0-0.2,0c-0.1,0-0.1,0-0.2,0
		c-0.1,0-0.2,0-0.3,0h-0.1c0.3,0,0.5-0.1,0.7-0.1c0.1,0,0.1,0,0.2,0c0.2,0,0.4-0.1,0.6-0.2c0.5-0.1,0.9-0.3,1.4-0.5
		c0.1-0.1,0.2-0.1,0.3-0.2s0.2-0.2,0.3-0.3c0.2-0.2,0.4-0.3,0.5-0.5C37.6,19.4,38,19.1,38.4,18.8z"/>
	<path class="st26" d="M41.3,19.6c-0.1,0.3-0.3,0.6-0.4,0.9c-0.1,0.3-0.3,0.6-0.4,0.9c-0.1,0.3-0.2,0.6-0.4,0.9
		c-0.1,0.3-0.2,0.6-0.3,0.9c0.1-0.3,0.1-0.6,0.2-0.9c0.1-0.3,0.2-0.6,0.3-0.9s0.3-0.6,0.4-0.9C40.9,20.1,41.1,19.9,41.3,19.6z"/>
	<g>
		<path class="st3" d="M27.1,21.7c0.1,0.5-2,1.1-4.7,1.4c-2.6,0.3-4.8,0.1-4.8-0.3c-0.1-0.5,2-1.1,4.7-1.4
			C24.9,21,27.1,21.2,27.1,21.7z"/>
		<g>
			<g class="st27">
				<g class="st27">
					<g>
						<g>
							<defs>
								<path id="SVGID_3_" d="M23.1,21.3l0.4,0.2c-0.1,0-0.2-0.1-0.3-0.1l-0.4-0.2C22.9,21.3,23,21.3,23.1,21.3z"/>
							</defs>
							<clipPath id="SVGID_4_">
								<use xlink:href="#SVGID_3_"  style="overflow:visible;"/>
							</clipPath>
							<g class="st28">
								<path class="st29" d="M23.2,21.5l-0.4-0.2c0.1,0,0.1,0,0.2,0l0.4,0.2C23.3,21.5,23.3,21.5,23.2,21.5L23.2,21.5z"/>
								<path class="st30" d="M23.4,21.5L23,21.3h0.1L23.4,21.5L23.4,21.5L23.4,21.5z"/>
								<path class="st31" d="M23.5,21.5l-0.4-0.2l0,0L23.5,21.5L23.5,21.5L23.5,21.5z"/>
							</g>
						</g>
					</g>
				</g>
				<g>
					<polygon class="st32" points="24,19.7 23.6,19.5 24.4,19.4 24.8,19.6 					"/>
				</g>
				<g>
					<polygon class="st33" points="25.3,19.8 24.9,19.6 26.4,13.8 26.7,14 					"/>
				</g>
				<g>
					<polygon class="st32" points="26.7,14 26.3,13.8 26.4,13.8 					"/>
				</g>
				<g>
					<polygon class="st34" points="24.8,19.6 24.4,19.4 24.4,16.7 24.8,16.9 					"/>
				</g>
				<g>
					<polygon class="st35" points="24.8,16.9 24.4,16.7 26.3,13.8 26.7,14 					"/>
				</g>
				<g>
					<polygon class="st36" points="24,18.2 23.6,18 24.4,16.7 24.8,16.9 					"/>
				</g>
				<g>
					<polygon class="st37" points="24,18.2 23.6,18 23.6,16.1 24,16.3 					"/>
				</g>
				<g>
					<polygon class="st38" points="24,19.7 23.6,19.5 23.6,18 24,18.2 					"/>
				</g>
				<g>
					<polygon class="st35" points="23.6,18.7 23.3,18.5 23.6,18 24,18.2 					"/>
				</g>
				<g>
					<polygon class="st34" points="23.6,19.7 23.3,19.5 23.3,18.5 23.6,18.7 					"/>
				</g>
				<g>
					<polygon class="st32" points="22.9,19.8 22.5,19.6 23.3,19.5 23.6,19.7 					"/>
				</g>
				<g>
					<polygon class="st39" points="23.6,19.7 22.9,19.8 23.6,18.7 					"/>
				</g>
				<g>
					<polygon class="st36" points="22.9,19.8 22.5,19.6 23.3,18.5 23.6,18.7 					"/>
				</g>
				<g>
					<polygon class="st40" points="19.5,20.6 19.1,20.4 24.9,19.6 25.3,19.8 					"/>
				</g>
				<g>
					<polygon class="st35" points="22.6,20.2 22.3,20 22.5,19.6 22.9,19.8 					"/>
				</g>
				<g>
					<polygon class="st41" points="26.7,14 26.7,14 25.3,19.8 22.6,20.2 22.9,19.8 23.6,19.7 23.6,18.7 24,18.2 24,19.7 24.8,19.6 
						24.8,16.9 					"/>
				</g>
				<g>
					<polygon class="st42" points="22.8,19.8 22.5,19.6 22.5,19.6 22.9,19.8 					"/>
				</g>
				<g>
					<polygon class="st43" points="22.4,20.6 22,20.4 22.8,20.3 23.2,20.5 					"/>
				</g>
				<g>
					<polygon class="st42" points="25.4,14.2 25,14 26.3,13.8 26.7,14 					"/>
				</g>
				<g>
					<polygon class="st44" points="24.8,16.9 24.4,16.7 24.4,15 24.8,15.2 					"/>
				</g>
				<g>
					<polygon class="st45" points="24.7,15.2 24.3,15 24.4,15 24.8,15.2 					"/>
				</g>
				<g>
					<polygon class="st46" points="24.7,15.2 24.3,15 25,14 25.4,14.2 					"/>
				</g>
				<g>
					<polygon class="st40" points="21.6,21.7 21.3,21.5 22.8,21.3 23.2,21.5 					"/>
				</g>
				<g>
					<polygon class="st47" points="21.6,21.7 21.2,21.5 21.3,20.5 21.6,20.7 					"/>
				</g>
				<g>
					<polygon class="st43" points="21.6,20.7 21.3,20.5 22,20.4 22.4,20.6 					"/>
				</g>
				<g>
					<polygon class="st48" points="24,16.3 23.6,16.1 24.3,15 24.7,15.2 					"/>
				</g>
				<g>
					<polygon class="st44" points="23.6,18.7 23.3,18.5 23.3,16.6 23.7,16.8 					"/>
				</g>
				<g>
					<polygon class="st46" points="23.7,16.8 23.3,16.6 23.6,16.1 24,16.3 					"/>
				</g>
				<g>
					<polygon class="st48" points="22.8,18 22.5,17.8 23.3,16.6 23.7,16.8 					"/>
				</g>
				<g>
					<polygon class="st34" points="23.7,16.8 23.3,16.6 23.3,16.5 23.7,16.7 					"/>
				</g>
				<g class="st27">
					<g>
						<g>
							<defs>
								<path id="SVGID_5_" d="M23.7,16.5l-0.4-0.2c0,0,0.1,0,0.1-0.1L23.7,16.5L23.7,16.5z"/>
							</defs>
							<clipPath id="SVGID_6_">
								<use xlink:href="#SVGID_5_"  style="overflow:visible;"/>
							</clipPath>
							<g class="st49">
								<path class="st50" d="M23.7,16.5l-0.4-0.2l0,0L23.7,16.5L23.7,16.5L23.7,16.5z"/>
								<path class="st51" d="M23.7,16.5l-0.4-0.2C23.3,16.3,23.7,16.5,23.7,16.5L23.7,16.5z"/>
								<path class="st52" d="M23.7,16.5l-0.4-0.2C23.3,16.3,23.7,16.5,23.7,16.5L23.7,16.5z"/>
								<path class="st53" d="M23.7,16.5l-0.4-0.2C23.3,16.3,23.7,16.5,23.7,16.5L23.7,16.5z"/>
								<path class="st54" d="M23.7,16.5l-0.4-0.2C23.3,16.3,23.7,16.5,23.7,16.5L23.7,16.5z"/>
								<path class="st55" d="M23.7,16.5l-0.4-0.2C23.3,16.3,23.7,16.5,23.7,16.5L23.7,16.5z"/>
								<path class="st56" d="M23.7,16.5l-0.4-0.2C23.3,16.3,23.7,16.5,23.7,16.5L23.7,16.5z"/>
								<path class="st57" d="M23.7,16.5l-0.4-0.2l0,0L23.7,16.5L23.7,16.5L23.7,16.5z"/>
							</g>
						</g>
					</g>
				</g>
				<g>
					<polygon class="st58" points="23.7,16.8 23.6,18.7 22.9,19.8 22.8,19.8 22.8,18 					"/>
				</g>
				<g>
					<polygon class="st37" points="22.8,19.8 22.5,19.6 22.5,17.8 22.8,18 					"/>
				</g>
				<g>
					<polygon class="st42" points="21.7,20 21.3,19.8 22.2,19.7 22.5,19.9 					"/>
				</g>
				<g>
					<polygon class="st44" points="22.5,19.9 22.2,19.7 22.2,18.3 22.5,18.5 					"/>
				</g>
				<g>
					<polygon class="st46" points="22.5,18.5 22.2,18.3 22.5,17.8 22.8,18 					"/>
				</g>
				<g>
					<polygon class="st32" points="24.7,14.3 24.4,14.1 25,14 25.4,14.2 					"/>
				</g>
				<g>
					<polygon class="st37" points="21.7,20 21.3,19.8 21.3,19.5 21.7,19.7 					"/>
				</g>
				<g>
					<polygon class="st59" points="22.8,18 22.8,19.8 22.9,19.8 22.6,20.2 21.2,20.4 21.7,19.7 21.7,20 22.5,19.9 22.5,18.5 					
						"/>
				</g>
				<g>
					<polygon class="st48" points="21.7,19.7 21.3,19.5 22.2,18.3 22.5,18.5 					"/>
				</g>
				<g>
					<polygon class="st58" points="22.5,18.5 22.5,19.9 21.7,20 21.7,19.7 					"/>
				</g>
				<g>
					<polygon class="st60" points="24.1,15.3 23.7,15.1 24.3,15 24.7,15.2 					"/>
				</g>
				<g>
					<polygon class="st41" points="25.4,14.2 24.7,15.2 24.1,15.3 24.7,14.3 					"/>
				</g>
				<g>
					<polygon class="st35" points="24.1,15.3 23.7,15.1 24.4,14.1 24.7,14.3 					"/>
				</g>
				<g>
					<polygon class="st38" points="24,16.3 23.6,16.1 23.6,15.3 24,15.4 					"/>
				</g>
				<g>
					<polygon class="st36" points="24,15.4 23.6,15.3 23.7,15.1 24.1,15.3 					"/>
				</g>
				<g>
					<polygon class="st35" points="23.8,15.7 23.5,15.5 23.6,15.3 24,15.4 					"/>
				</g>
				<g>
					<polygon class="st61" points="23.7,16.5 23.4,16.3 23.5,15.5 23.8,15.7 					"/>
				</g>
				<g>
					<polygon class="st62" points="23.6,16.4 23.2,16.2 23.3,15.7 23.7,15.9 					"/>
				</g>
				<g>
					<polygon class="st63" points="23.7,15.9 23.3,15.7 23.5,15.5 23.8,15.7 					"/>
				</g>
				<g>
					<polygon class="st46" points="21.2,20.4 20.9,20.2 21.3,19.5 21.7,19.7 					"/>
				</g>
				<g>
					<polygon class="st45" points="24,15.3 23.6,15.1 23.7,15.1 24.1,15.3 					"/>
				</g>
				<g>
					<polygon class="st37" points="24,15.4 23.6,15.3 23.6,15.1 24,15.3 					"/>
				</g>
				<g>
					<polygon class="st59" points="23.6,18.7 23.7,16.8 24,16.3 24,18.2 					"/>
				</g>
				<g>
					<polygon class="st60" points="23.1,16.8 22.8,16.6 23.3,16.5 23.7,16.7 					"/>
				</g>
				<g>
					<polygon class="st32" points="23.2,16.6 22.9,16.4 23.3,16.3 23.7,16.5 					"/>
				</g>
				<g>
					<polygon class="st64" points="23.3,16.5 23,16.3 23.2,16.2 23.6,16.4 					"/>
				</g>
				<g>
					<polygon class="st41" points="23.6,16.4 23.3,16.5 23.7,15.9 					"/>
				</g>
				<g>
					<polygon class="st35" points="23.3,16.5 23,16.3 23.3,15.7 23.7,15.9 					"/>
				</g>
				<g>
					<path class="st65" d="M23.7,15.9l0.2-0.2l-0.1,0.8c0,0,0,0.1-0.1,0.1l-0.4,0.1l0.1-0.1h0.3V15.9z"/>
				</g>
				<g>
					<polygon class="st63" points="23.2,16.6 22.9,16.4 23,16.3 23.3,16.5 					"/>
				</g>
				<g>
					<polygon class="st58" points="24.8,15.2 24.8,16.9 24,18.2 24,16.3 24.7,15.2 					"/>
				</g>
				<g>
					<path class="st41" d="M23.2,16.6l0.4-0.1c0,0,0.1,0,0.1-0.1l0.1-0.8l0.1-0.2v0.8l-0.3,0.5v-0.1L23.2,16.6L23.2,16.6z"/>
				</g>
				<g>
					<polygon class="st35" points="23.1,16.8 22.8,16.6 22.9,16.4 23.2,16.6 					"/>
				</g>
				<g>
					<polygon class="st38" points="22.8,18 22.5,17.8 22.5,17 22.8,17.2 					"/>
				</g>
				<g>
					<polygon class="st36" points="22.8,17.2 22.5,17 22.8,16.6 23.1,16.8 					"/>
				</g>
				<g>
					<polygon class="st34" points="22.5,18.5 22.2,18.3 22.2,17.5 22.5,17.7 					"/>
				</g>
				<g>
					<polygon class="st35" points="22.5,17.7 22.2,17.5 22.5,17 22.8,17.2 					"/>
				</g>
				<g>
					<polygon class="st41" points="22.8,18 22.5,18.5 22.5,17.7 22.8,17.2 					"/>
				</g>
				<g>
					<polygon class="st66" points="23.8,15.7 23.5,15.5 23.6,14.7 24,14.9 					"/>
				</g>
				<g class="st27">
					<g>
						<g>
							<defs>
								<path id="SVGID_7_" d="M23.6,14.6l0.4,0.2c0,0,0,0,0,0.1L23.6,14.6C23.6,14.7,23.6,14.6,23.6,14.6z"/>
							</defs>
							<clipPath id="SVGID_8_">
								<use xlink:href="#SVGID_7_"  style="overflow:visible;"/>
							</clipPath>
							<g class="st67">
								<path class="st68" d="M24,14.9l-0.4-0.2v-0.1L24,14.9C24,14.8,24,14.9,24,14.9L24,14.9z"/>
							</g>
						</g>
					</g>
				</g>
				<g>
					<polygon class="st38" points="21.7,19.7 21.3,19.5 21.3,18.7 21.7,18.9 					"/>
				</g>
				<g>
					<polygon class="st39" points="22.5,17.7 22.5,18.5 21.7,19.7 21.7,18.9 					"/>
				</g>
				<g>
					<polygon class="st36" points="21.7,18.9 21.3,18.7 22.2,17.5 22.5,17.7 					"/>
				</g>
				<g class="st27">
					<g>
						<g>
							<defs>
								<polygon id="SVGID_9_" points="23.6,14.6 24,14.8 24,14.8 								"/>
							</defs>
							<clipPath id="SVGID_10_">
								<use xlink:href="#SVGID_9_"  style="overflow:visible;"/>
							</clipPath>
							<g class="st69">
								<path class="st70" d="M23.9,14.8l-0.4-0.2C23.6,14.6,23.9,14.8,23.9,14.8L23.9,14.8z"/>
								<path class="st71" d="M23.9,14.8l-0.4-0.2C23.6,14.6,23.9,14.8,23.9,14.8L23.9,14.8z"/>
								<path class="st72" d="M23.9,14.8l-0.3-0.2L23.9,14.8z"/>
							</g>
						</g>
					</g>
				</g>
				<g>
					<polygon class="st37" points="22.8,17.2 22.5,17 22.5,16.6 22.8,16.8 					"/>
				</g>
				<g>
					<polygon class="st45" points="22.8,16.8 22.5,16.6 22.8,16.6 23.1,16.8 					"/>
				</g>
				<g>
					<polygon class="st58" points="23.1,16.8 22.8,17.2 22.8,16.8 					"/>
				</g>
				<g>
					<polygon class="st73" points="23.7,15.9 23.3,15.7 23.5,14.7 23.9,14.9 					"/>
				</g>
				<g>
					<polygon class="st34" points="21.4,20 21,19.8 21,19.2 21.4,19.4 					"/>
				</g>
				<g>
					<polygon class="st35" points="21.4,19.4 21,19.2 21.3,18.7 21.7,18.9 					"/>
				</g>
				<g>
					<path class="st74" d="M23.9,14.8C24,14.8,24,14.9,23.9,14.8l-0.1,0.8l-0.2,0.2L23.9,14.8C23.9,14.9,23.9,14.8,23.9,14.8
						L23.9,14.8z"/>
				</g>
				<g class="st27">
					<g>
						<g>
							<defs>
								<path id="SVGID_11_" d="M23.9,14.9l-0.4-0.2c0,0,0-0.1,0.1-0.1C23.6,14.6,23.9,14.8,23.9,14.9
									C23.9,14.8,23.9,14.9,23.9,14.9z"/>
							</defs>
							<clipPath id="SVGID_12_">
								<use xlink:href="#SVGID_11_"  style="overflow:visible;"/>
							</clipPath>
							<g class="st75">
								<path class="st76" d="M23.9,14.9l-0.4-0.2l0,0L23.9,14.9L23.9,14.9L23.9,14.9z"/>
								<path class="st77" d="M23.9,14.9l-0.4-0.2L23.9,14.9L23.9,14.9z"/>
								<path class="st78" d="M23.9,14.9l-0.4-0.2L23.9,14.9L23.9,14.9z"/>
								<path class="st79" d="M23.9,14.9l-0.4-0.2C23.5,14.7,23.9,14.8,23.9,14.9L23.9,14.9z"/>
								<path class="st80" d="M23.9,14.8l-0.4-0.2L23.9,14.8L23.9,14.8z"/>
								<path class="st72" d="M23.9,14.8l-0.4-0.2L23.9,14.8L23.9,14.8z"/>
								<path class="st71" d="M23.9,14.8l-0.4-0.2L23.9,14.8L23.9,14.8z"/>
								<path class="st70" d="M23.9,14.8l-0.4-0.2l0,0C23.6,14.6,23.9,14.8,23.9,14.8L23.9,14.8L23.9,14.8z"/>
							</g>
						</g>
					</g>
				</g>
				<g class="st27">
					<g>
						<g>
							<defs>
								<path id="SVGID_13_" d="M22.5,17.3l-0.4-0.2c0,0,0,0,0.1-0.1L22.5,17.3C22.6,17.3,22.5,17.3,22.5,17.3z"/>
							</defs>
							<clipPath id="SVGID_14_">
								<use xlink:href="#SVGID_13_"  style="overflow:visible;"/>
							</clipPath>
							<g class="st81">
								<path class="st82" d="M22.5,17.3l-0.4-0.2l0,0L22.5,17.3L22.5,17.3L22.5,17.3z"/>
								<path class="st83" d="M22.5,17.3l-0.4-0.2C22.2,17.1,22.5,17.3,22.5,17.3L22.5,17.3z"/>
								<path class="st84" d="M22.5,17.3l-0.4-0.2C22.2,17.1,22.5,17.3,22.5,17.3L22.5,17.3z"/>
								<path class="st85" d="M22.5,17.3l-0.4-0.2C22.2,17.1,22.6,17.3,22.5,17.3L22.5,17.3z"/>
								<path class="st86" d="M22.6,17.3l-0.4-0.2C22.2,17.1,22.6,17.3,22.6,17.3L22.6,17.3z"/>
								<path class="st87" d="M22.6,17.3l-0.4-0.2C22.2,17.1,22.6,17.3,22.6,17.3L22.6,17.3z"/>
								<path class="st88" d="M22.6,17.3l-0.4-0.2C22.2,17.1,22.6,17.3,22.6,17.3L22.6,17.3z"/>
								<path class="st68" d="M22.6,17.3l-0.4-0.2L22.6,17.3z"/>
							</g>
						</g>
					</g>
				</g>
				<g>
					<polygon class="st32" points="20.9,20.1 20.6,19.9 21,19.8 21.4,20 					"/>
				</g>
				<g>
					<polygon class="st36" points="20.9,20.1 20.6,19.9 21,19.2 21.4,19.4 					"/>
				</g>
				<g>
					<polygon class="st39" points="20.9,20.1 21.4,19.4 21.4,20 					"/>
				</g>
				<g>
					<polygon class="st35" points="20.7,20.5 20.3,20.3 20.6,19.9 20.9,20.1 					"/>
				</g>
				<g>
					<polygon class="st89" points="22.6,17.3 22.2,17.1 22.4,16.5 22.8,16.7 					"/>
				</g>
				<g>
					<polygon class="st42" points="22.8,16.7 22.4,16.5 22.9,16.4 23.2,16.6 					"/>
				</g>
				<g>
					<polygon class="st90" points="22.7,16.5 22.4,16.3 23,16.3 23.3,16.5 					"/>
				</g>
				<g>
					<polygon class="st91" points="22.5,17.2 22.1,17 22.3,16.4 22.7,16.6 					"/>
				</g>
				<g class="st27">
					<g>
						<g>
							<defs>
								<path id="SVGID_15_" d="M22.7,16.6l-0.4-0.2c0,0,0,0,0.1-0.1L22.7,16.6C22.7,16.5,22.7,16.6,22.7,16.6z"/>
							</defs>
							<clipPath id="SVGID_16_">
								<use xlink:href="#SVGID_15_"  style="overflow:visible;"/>
							</clipPath>
							<g class="st92">
								<path class="st76" d="M22.7,16.6l-0.4-0.2C22.3,16.4,22.7,16.6,22.7,16.6L22.7,16.6z"/>
								<path class="st77" d="M22.7,16.6l-0.4-0.2C22.3,16.4,22.7,16.6,22.7,16.6L22.7,16.6z"/>
								<path class="st78" d="M22.7,16.6l-0.4-0.2C22.3,16.4,22.7,16.6,22.7,16.6L22.7,16.6z"/>
								<path class="st79" d="M22.7,16.6l-0.4-0.2C22.3,16.4,22.7,16.6,22.7,16.6L22.7,16.6z"/>
								<path class="st80" d="M22.7,16.6l-0.4-0.2C22.3,16.4,22.7,16.6,22.7,16.6L22.7,16.6z"/>
								<path class="st72" d="M22.7,16.6l-0.4-0.2C22.3,16.4,22.7,16.5,22.7,16.6L22.7,16.6z"/>
								<path class="st71" d="M22.7,16.5l-0.4-0.2C22.3,16.3,22.7,16.5,22.7,16.5L22.7,16.5z"/>
								<path class="st70" d="M22.7,16.5l-0.4-0.2l0,0L22.7,16.5L22.7,16.5L22.7,16.5z"/>
							</g>
						</g>
					</g>
				</g>
				<g>
					<polygon class="st42" points="20.6,20.1 20.2,20 20.6,19.9 20.9,20.1 					"/>
				</g>
				<g>
					<polygon class="st37" points="21.7,18.9 21.3,18.7 21.3,17.6 21.7,17.8 					"/>
				</g>
				<g>
					<polygon class="st44" points="21.4,19.4 21,19.2 21,18.3 21.4,18.5 					"/>
				</g>
				<g>
					<polygon class="st45" points="21.7,17.8 21.3,17.6 22.2,17.5 22.5,17.7 					"/>
				</g>
				<g class="st27">
					<g>
						<g>
							<defs>
								<path id="SVGID_17_" d="M21.4,18.3L21,18.1c0,0,0.1,0,0.1-0.1L21.4,18.3L21.4,18.3z"/>
							</defs>
							<clipPath id="SVGID_18_">
								<use xlink:href="#SVGID_17_"  style="overflow:visible;"/>
							</clipPath>
							<g class="st93">
								<path class="st82" d="M21.4,18.3L21,18.1l0,0L21.4,18.3L21.4,18.3L21.4,18.3z"/>
								<path class="st83" d="M21.4,18.3L21,18.1L21.4,18.3L21.4,18.3z"/>
								<path class="st84" d="M21.4,18.3L21,18.1C21.1,18.1,21.4,18.3,21.4,18.3L21.4,18.3z"/>
								<path class="st85" d="M21.4,18.3L21,18.1C21.1,18.1,21.4,18.3,21.4,18.3L21.4,18.3z"/>
								<path class="st86" d="M21.4,18.3L21,18.1C21.1,18.1,21.4,18.3,21.4,18.3L21.4,18.3z"/>
								<path class="st87" d="M21.4,18.3L21,18.1C21.1,18.1,21.4,18.3,21.4,18.3L21.4,18.3z"/>
								<path class="st88" d="M21.4,18.3L21,18.1C21.1,18.1,21.4,18.3,21.4,18.3L21.4,18.3z"/>
								<path class="st68" d="M21.4,18.3L21,18.1l0,0L21.4,18.3L21.4,18.3L21.4,18.3z"/>
							</g>
						</g>
					</g>
				</g>
				<g>
					<polygon class="st42" points="23.4,14.5 23.1,14.3 24.4,14.1 24.7,14.3 					"/>
				</g>
				<g>
					<polygon class="st42" points="21.5,17.5 21.2,17.3 22.2,17.1 22.5,17.3 					"/>
				</g>
				<g>
					<polygon class="st94" points="21.4,18.3 21.1,18.1 21.2,17.3 21.5,17.5 					"/>
				</g>
				<g>
					<polygon class="st90" points="21.5,17.3 21.1,17.1 22.1,17 22.5,17.2 					"/>
				</g>
				<g>
					<polygon class="st59" points="26.7,14 24.8,16.9 24.8,15.2 24.7,15.2 25.4,14.2 					"/>
				</g>
				<g>
					<path class="st59" d="M23.4,14.5l1.3-0.2l-0.7,1h-0.1v0.1l-0.1,0.2l0.1-0.8v-0.1c0,0-0.1,0-0.1,0.1l-0.2,1l-0.4,0.6l-0.6,0.1
						c0,0,0,0-0.1,0.1l-0.2,0.6l-1,0.1L23.4,14.5z"/>
				</g>
				<g>
					<polygon class="st46" points="21.5,17.3 21.1,17.1 23.1,14.3 23.4,14.5 					"/>
				</g>
				<g>
					<polygon class="st95" points="21.3,18.2 21,18 21,17.3 21.4,17.5 					"/>
				</g>
				<g>
					<polygon class="st96" points="21.4,17.5 21,17.3 21.1,17.1 21.5,17.3 					"/>
				</g>
				<g>
					<polygon class="st64" points="21.5,17.3 21.1,17.1 21.1,17.1 					"/>
				</g>
				<g>
					<polygon class="st97" points="21.4,17.5 21,17.3 21.1,17.2 21.4,17.4 					"/>
				</g>
				<g>
					<path class="st65" d="M21.4,17.4C21.4,17.4,21.4,17.3,21.4,17.4L21.4,17.4L21.4,17.4L21.4,17.4z"/>
				</g>
				<g class="st27">
					<g>
						<g>
							<defs>
								<path id="SVGID_19_" d="M21.4,17.4L21,17.2c0,0,0-0.1,0.1-0.1L21.4,17.4C21.4,17.3,21.4,17.4,21.4,17.4z"/>
							</defs>
							<clipPath id="SVGID_20_">
								<use xlink:href="#SVGID_19_"  style="overflow:visible;"/>
							</clipPath>
							<g class="st98">
								<path class="st99" d="M21.4,17.4L21,17.2l0,0L21.4,17.4L21.4,17.4L21.4,17.4z"/>
								<path class="st100" d="M21.4,17.4L21,17.2C21.1,17.2,21.4,17.4,21.4,17.4L21.4,17.4z"/>
								<path class="st101" d="M21.4,17.4L21,17.2C21.1,17.2,21.4,17.4,21.4,17.4L21.4,17.4z"/>
								<path class="st102" d="M21.4,17.4L21,17.2C21.1,17.2,21.4,17.4,21.4,17.4L21.4,17.4z"/>
								<path class="st103" d="M21.4,17.4L21,17.2C21.1,17.2,21.4,17.4,21.4,17.4L21.4,17.4z"/>
								<path class="st104" d="M21.4,17.4L21,17.2C21.1,17.2,21.4,17.4,21.4,17.4L21.4,17.4z"/>
								<path class="st105" d="M21.4,17.4L21,17.2C21.1,17.2,21.5,17.4,21.4,17.4L21.4,17.4z"/>
								<path class="st106" d="M21.5,17.4l-0.4-0.2l0,0L21.5,17.4C21.5,17.3,21.5,17.3,21.5,17.4L21.5,17.4z"/>
							</g>
						</g>
					</g>
				</g>
				<g>
					<polygon class="st45" points="20.7,18.6 20.3,18.4 21,18.3 21.4,18.5 					"/>
				</g>
				<g>
					<polygon class="st42" points="20.8,18.4 20.4,18.2 21,18.1 21.4,18.3 					"/>
				</g>
				<g>
					<polygon class="st90" points="20.9,18.3 20.5,18.1 21,18 21.3,18.2 					"/>
				</g>
				<g>
					<polygon class="st59" points="21.4,17.5 21.3,18.2 20.9,18.3 					"/>
				</g>
				<g>
					<polygon class="st46" points="20.9,18.3 20.5,18.1 21,17.3 21.4,17.5 					"/>
				</g>
				<g>
					<polygon class="st96" points="20.8,18.4 20.4,18.2 20.5,18.1 20.9,18.3 					"/>
				</g>
				<g>
					<path class="st74" d="M22.7,16.6C22.7,16.6,22.7,16.5,22.7,16.6l0.7-0.1l-0.1,0.1H22.7l-0.1,0.7c0,0,0,0-0.1,0.1l-1,0.1
						l-0.1,0.8c0,0,0,0.1-0.1,0.1l-0.6,0.1l0.1-0.1l0.4-0.1l0.1-0.7l0.1-0.2l1-0.1L22.7,16.6z"/>
				</g>
				<g>
					<polygon class="st46" points="20.7,18.6 20.3,18.4 20.4,18.2 20.8,18.4 					"/>
				</g>
				<g>
					<polygon class="st107" points="20.6,18.7 20.2,18.5 20.3,18.4 20.7,18.6 					"/>
				</g>
				<g>
					<path class="st59" d="M22.6,17.3l0.2-0.6l0.5-0.1l-0.1,0.2h-0.3v0.4l-0.3,0.5l-0.8,0.1v1.1l-0.3,0.5v-0.9l-0.7,0.1l0.1-0.2
						l0.6-0.1c0,0,0.1,0,0.1-0.1l0.1-0.8L22.6,17.3C22.5,17.3,22.6,17.3,22.6,17.3z"/>
				</g>
				<g>
					<polygon class="st37" points="20.6,20.1 20.2,20 20.2,18.5 20.6,18.7 					"/>
				</g>
				<g>
					<polygon class="st39" points="20.6,18.7 20.6,18.6 20.7,18.6 					"/>
				</g>
				<g>
					<polygon class="st38" points="20.6,18.7 20.2,18.5 20.2,18.4 20.6,18.6 					"/>
				</g>
				<g>
					<polygon class="st60" points="20.6,18.6 20.2,18.4 20.3,18.4 20.7,18.6 					"/>
				</g>
				<g>
					<polygon class="st108" points="19.5,20.6 19.1,20.4 19.1,20.2 19.4,20.4 					"/>
				</g>
				<g>
					<polygon class="st59" points="20.6,18.7 20.6,20.1 20.9,20.1 20.7,20.5 19.5,20.6 19.4,20.4 					"/>
				</g>
				<g>
					<polygon class="st46" points="19.4,20.4 19.1,20.2 20.2,18.5 20.6,18.7 					"/>
				</g>
				<g class="st27">
					<g>
						<g>
							<defs>
								<path id="SVGID_21_" d="M19.8,19.6l-0.4-0.2c0,0,0,0,0.1,0L19.8,19.6C19.8,19.5,19.8,19.6,19.8,19.6z"/>
							</defs>
							<clipPath id="SVGID_22_">
								<use xlink:href="#SVGID_21_"  style="overflow:visible;"/>
							</clipPath>
							<g class="st109">
								<path class="st50" d="M19.8,19.6l-0.4-0.2l0,0L19.8,19.6L19.8,19.6L19.8,19.6z"/>
								<path class="st51" d="M19.8,19.6l-0.4-0.2C19.5,19.4,19.8,19.5,19.8,19.6L19.8,19.6z"/>
								<path class="st52" d="M19.8,19.5l-0.4-0.2C19.5,19.3,19.8,19.5,19.8,19.5L19.8,19.5z"/>
								<path class="st53" d="M19.8,19.5l-0.4-0.2C19.5,19.3,19.8,19.5,19.8,19.5L19.8,19.5z"/>
								<path class="st54" d="M19.8,19.5l-0.4-0.2C19.5,19.3,19.9,19.5,19.8,19.5L19.8,19.5z"/>
								<path class="st55" d="M19.9,19.5l-0.4-0.2L19.9,19.5L19.9,19.5z"/>
								<path class="st56" d="M19.9,19.5l-0.4-0.2L19.9,19.5L19.9,19.5z"/>
							</g>
						</g>
					</g>
				</g>
				<g>
					<polygon class="st110" points="19.8,19.6 19.4,19.4 19.4,19.4 					"/>
				</g>
				<g class="st27">
					<g>
						<g>
							<defs>
								<path id="SVGID_23_" d="M19.8,19.6l-0.4-0.2L19.8,19.6z"/>
							</defs>
							<clipPath id="SVGID_24_">
								<use xlink:href="#SVGID_23_"  style="overflow:visible;"/>
							</clipPath>
							<g class="st111">
								<path class="st52" d="M19.8,19.6l-0.4-0.2L19.8,19.6z"/>
								<path class="st51" d="M19.8,19.6l-0.4-0.2L19.8,19.6z"/>
							</g>
						</g>
					</g>
				</g>
				<g>
					<polygon class="st32" points="20.3,18.5 20,18.3 20.4,18.2 20.8,18.4 					"/>
				</g>
				<g>
					<polygon class="st112" points="19.9,19.5 19.5,19.3 20,18.3 20.3,18.5 					"/>
				</g>
				<g class="st27">
					<g>
						<g>
							<defs>
								<path id="SVGID_25_" d="M19.8,19.6l-0.4-0.2c0,0,0,0,0-0.1L19.8,19.6C19.7,19.5,19.8,19.5,19.8,19.6z"/>
							</defs>
							<clipPath id="SVGID_26_">
								<use xlink:href="#SVGID_25_"  style="overflow:visible;"/>
							</clipPath>
							<g class="st113">
								<path class="st99" d="M19.8,19.6l-0.4-0.2c0,0,0,0,0-0.1L19.8,19.6C19.7,19.5,19.8,19.5,19.8,19.6L19.8,19.6z"/>
								<path class="st100" d="M19.8,19.5l-0.4-0.2L19.8,19.5z"/>
							</g>
						</g>
					</g>
				</g>
				<g>
					<polygon class="st64" points="20.3,18.4 19.9,18.2 20.5,18.1 20.9,18.3 					"/>
				</g>
				<g>
					<polygon class="st102" points="19.8,19.5 19.4,19.3 19.9,18.2 20.2,18.4 					"/>
				</g>
				<g class="st27">
					<g>
						<g>
							<defs>
								<path id="SVGID_27_" d="M20.2,18.4l-0.4-0.2c0,0,0,0,0.1,0L20.2,18.4C20.3,18.4,20.2,18.4,20.2,18.4z"/>
							</defs>
							<clipPath id="SVGID_28_">
								<use xlink:href="#SVGID_27_"  style="overflow:visible;"/>
							</clipPath>
							<g class="st114">
								<path class="st100" d="M20.2,18.4l-0.4-0.2C19.9,18.2,20.2,18.4,20.2,18.4L20.2,18.4z"/>
								<path class="st101" d="M20.2,18.4l-0.4-0.2C19.9,18.2,20.2,18.4,20.2,18.4L20.2,18.4z"/>
								<path class="st102" d="M20.2,18.4l-0.4-0.2C19.9,18.2,20.2,18.4,20.2,18.4L20.2,18.4z"/>
								<path class="st103" d="M20.2,18.4l-0.4-0.2C19.9,18.2,20.3,18.4,20.2,18.4L20.2,18.4z"/>
								<path class="st104" d="M20.3,18.4l-0.4-0.2C19.9,18.2,20.3,18.4,20.3,18.4L20.3,18.4z"/>
								<path class="st105" d="M20.3,18.4l-0.4-0.2C19.9,18.2,20.3,18.4,20.3,18.4L20.3,18.4z"/>
								<path class="st106" d="M20.3,18.4l-0.4-0.2l0,0L20.3,18.4L20.3,18.4L20.3,18.4z"/>
							</g>
						</g>
					</g>
				</g>
				<g>
					<polygon class="st39" points="23.1,16.8 23.7,16.7 23.7,16.8 22.8,18 22.8,17.2 					"/>
				</g>
				<g class="st27">
					<g>
						<g>
							<defs>
								<path id="SVGID_29_" d="M21,22.4l-0.4-0.2c0-0.3,0.3-0.7,0.6-0.7l0.4,0.2C21.3,21.7,21,22.1,21,22.4z"/>
							</defs>
							<clipPath id="SVGID_30_">
								<use xlink:href="#SVGID_29_"  style="overflow:visible;"/>
							</clipPath>
							<g class="st115">
								<path class="st116" d="M21,22.4l-0.4-0.2c0-0.1,0-0.2,0-0.3l0.4,0.2C21,22.2,21,22.3,21,22.4L21,22.4z"/>
								<path class="st117" d="M21.1,22.1L20.7,22v-0.1L21.1,22.1L21.1,22.1L21.1,22.1z"/>
								<path class="st118" d="M21.1,22.1l-0.4-0.2v-0.1L21.1,22.1C21.2,22,21.1,22,21.1,22.1L21.1,22.1z"/>
								<path class="st119" d="M21.2,22l-0.4-0.2c0,0,0,0,0.1-0.1L21.2,22C21.2,21.9,21.2,22,21.2,22L21.2,22z"/>
								<path class="st120" d="M21.2,21.9l-0.4-0.2c0,0,0,0,0.1-0.1L21.2,21.9C21.3,21.9,21.2,21.9,21.2,21.9L21.2,21.9z"/>
								<path class="st31" d="M21.3,21.8l-0.4-0.2c0,0,0,0,0.1-0.1L21.3,21.8L21.3,21.8L21.3,21.8z"/>
								<path class="st30" d="M21.4,21.8L21,21.6c0,0,0.1,0,0.1-0.1L21.4,21.8L21.4,21.8L21.4,21.8z"/>
								<path class="st29" d="M21.4,21.7L21,21.5c0.1,0,0.1,0,0.2-0.1l0.4,0.2C21.6,21.7,21.5,21.7,21.4,21.7L21.4,21.7z"/>
							</g>
						</g>
					</g>
				</g>
				<g>
					<path class="st121" d="M23.2,20.5v1l-1.6,0.2v-1l0.8-0.1L23.2,20.5z"/>
				</g>
				<g>
					<polygon class="st41" points="21.7,18.9 21.7,19.7 21.2,20.4 20.7,20.5 20.9,20.1 21.4,20 21.4,19.4 					"/>
				</g>
				<g>
					<polygon class="st58" points="22.5,17.7 21.7,18.9 21.7,17.8 					"/>
				</g>
				<g>
					<path class="st41" d="M20.6,18.6v0.1l-1.1,1.7l-1.4-5.2l5.3-0.7l-1.9,2.9l0,0c0,0-0.1,0-0.1,0.1v0.1l-0.5,0.8l-0.6,0.1
						c0,0,0,0-0.1,0l-0.5,1.1v0.1l0,0c0,0,0,0,0.1,0l0.5-1l0.5-0.1L20.6,18.6L20.6,18.6z"/>
				</g>
				<g>
					<polygon class="st32" points="18.1,15.2 17.7,15 23.1,14.3 23.4,14.5 					"/>
				</g>
				<g>
					<polygon class="st122" points="19.4,20.4 19.1,20.2 17.7,15 18.1,15.2 					"/>
				</g>
				<g>
					<path class="st123" d="M22.4,14.3L17.6,15l1.6,6.1l2.5-0.3l0.8-0.1l0.8-0.1l2.5-0.3l1.6-6.5L22.4,14.3z M25.3,19.8l-4.1,0.6
						l-0.4,0.1l-1.3,0.2l-0.1-0.2L18,15.3l5.3-0.7l1.3-0.2l0.6-0.1l1.3-0.2l0,0L25.3,19.8L25.3,19.8z"/>
				</g>
				<g>
					<polygon class="st39" points="24,18.2 24,19.7 24.8,19.6 24.8,16.9 24.5,17.4 					"/>
				</g>
				<g>
					<path class="st123" d="M23.2,21.5c0.3,0,0.6,0.2,0.6,0.6L21,22.4c0-0.3,0.3-0.7,0.6-0.7C21.6,21.7,23.2,21.5,23.2,21.5z"/>
				</g>
				<g>
					<polygon class="st39" points="24.1,15.3 24.7,15.2 24,16.3 24,15.4 					"/>
				</g>
				<g>
					<polygon class="st58" points="24.1,15.3 24,15.4 24,15.3 					"/>
				</g>
				<g>
					<polygon class="st58" points="21.4,18.5 21.4,19.4 20.9,20.1 20.6,20.1 20.6,18.7 20.7,18.6 					"/>
				</g>
				<g>
					<path class="st65" d="M20.2,18.4C20.2,18.4,20.3,18.4,20.2,18.4l0.7-0.1l-0.1,0.1H20.2l-0.4,1.1c0,0,0,0-0.1,0l0,0
						c0,0,0,0,0-0.1L20.2,18.4z"/>
				</g>
				<g>
					<polygon class="st40" points="22.4,14.3 22.1,14.1 26.9,13.4 27.3,13.6 					"/>
				</g>
				<g>
					<polygon class="st40" points="17.6,15 17.2,14.8 22.1,14.1 22.4,14.3 					"/>
				</g>
				<g>
					<polygon class="st124" points="19.1,21 18.8,20.8 17.2,14.8 17.6,15 					"/>
				</g>
			</g>
		</g>
	</g>
	<path class="st125" d="M34.1,23.1c-0.4,0.2-1.3,0.6-1.9,0.9c-0.2,0.1-0.2,0.4,0,0.5l5.3,2.4c0.1,0,0.2,0,0.3,0l1.4-1.2
		c0.2-0.1,0.1-0.4-0.1-0.5l-4.8-2.1C34.2,23.1,34.2,23.1,34.1,23.1z"/>
	<path class="st26" d="M39.1,23.2c-1.8-0.1-3.5-1-4.7-1.9c0.4,0.1,2,1,2,1C36.9,22.6,38.7,23,39.1,23.2z"/>
	<g>
		<path class="st12" d="M23.4,37.6c-0.1,0-0.2-0.1-0.2-0.2c0-0.4,0.1-8.2,0.1-8.5c0-0.1,0.1-0.2,0.2-0.2s0.2,0.1,0.2,0.2
			s-0.1,8.1-0.1,8.5C23.6,37.5,23.5,37.6,23.4,37.6z"/>
	</g>
	<g>
		<path class="st12" d="M37.3,37.3c-0.1,0-0.2-0.1-0.2-0.2c0-0.4,0.5-7.9,0.6-8.2c0-0.1,0.1-0.2,0.3-0.2c0.1,0,0.2,0.1,0.2,0.3
			c-0.2,2.7-0.6,7.8-0.6,8.2C37.5,37.2,37.4,37.3,37.3,37.3z"/>
	</g>
	<path class="st18" d="M34.2,23c-0.4,0.2-1.3,0.6-1.9,0.9c-0.2,0.1-0.2,0.4,0,0.5l5.3,2.4c0.1,0,0.2,0,0.3,0l1.4-1.2
		c0.2-0.1,0.1-0.4-0.1-0.5L34.4,23C34.4,22.9,34.3,22.9,34.2,23z"/>
	<path class="st126" d="M32.8,24.4c-0.2-0.1-0.2-0.4,0-0.5c0.6-0.3,1.4-0.7,1.8-0.9h-0.1c-0.1,0-0.2,0-0.3,0
		c-0.4,0.2-1.3,0.6-1.9,0.9c-0.2,0.1-0.2,0.4,0,0.5l5.3,2.4c0.1,0,0.2,0,0.3,0L32.8,24.4z"/>
	<g>
		<path class="st127" d="M37.7,26.2L37.7,26.2l-4.5-1.9c0,0-0.1-0.1,0-0.1c0,0,0.1-0.1,0.1,0l4.5,1.9C37.8,26.1,37.8,26.1,37.7,26.2
			C37.8,26.2,37.7,26.2,37.7,26.2z"/>
	</g>
	<g>
		<path class="st127" d="M38.3,25.9L38.3,25.9L33.8,24c0,0-0.1-0.1,0-0.1c0,0,0.1-0.1,0.1,0l4.5,1.9C38.4,25.8,38.4,25.8,38.3,25.9
			C38.4,25.9,38.4,25.9,38.3,25.9z"/>
	</g>
	<g>
		<path class="st127" d="M38.7,25.5L38.7,25.5l-4.5-1.9c0,0-0.1-0.1,0-0.1c0,0,0.1-0.1,0.1,0l4.5,1.9C38.8,25.4,38.8,25.5,38.7,25.5
			C38.8,25.5,38.7,25.5,38.7,25.5z"/>
	</g>
	<path class="st128" d="M42.3,15.7c0,0.1-0.1,0.2-0.2,0.3c-0.1,0.1-0.2,0.2-0.3,0.2s-0.1,0.1-0.2,0.1l-0.1,0.1l0,0c0,0,0,0,0.1,0.1
		c0,0,0.1,0,0.1,0.1c0,0,0,0.1,0.1,0.1c0-0.1-0.1-0.1-0.1-0.1s-0.1,0-0.1-0.1v-0.1c0-0.1,0.1-0.1,0.1-0.1c0.1,0,0.1-0.1,0.2-0.1
		c0.1-0.1,0.2-0.1,0.3-0.2C42.2,15.9,42.3,15.8,42.3,15.7L42.3,15.7z"/>
	<path class="st129" d="M41.2,16.8C41.2,16.9,41.2,16.9,41.2,16.8c0.1,0.1,0.1,0.1,0.1,0.2c0,0,0.1,0.1,0.2,0.1
		c0.1,0,0.1,0.1,0.2,0.1c0.1,0,0.1,0.1,0.2,0.1c-0.1,0-0.3-0.1-0.4-0.2c-0.1,0-0.1-0.1-0.1-0.1C41.2,17,41.2,16.9,41.2,16.8z"/>
	<path class="st130" d="M42.1,15.7c-0.1,0-0.1,0-0.2,0c-0.1,0-0.1,0-0.2-0.1c-0.1,0-0.1-0.1-0.1-0.2l0,0l0,0l0.1,0.1l0.1,0.1
		C42,15.7,42,15.7,42.1,15.7z"/>
	<path class="st130" d="M42.5,16.1c0,0.1,0.1,0.1,0.1,0.1l0.1,0.1c0,0,0.1,0,0.2,0.1c0.1,0,0.1,0,0.2,0c-0.1,0-0.3,0-0.4,0
		c-0.1,0-0.1-0.1-0.1-0.1C42.5,16.2,42.5,16.2,42.5,16.1z"/>
	<polygon class="st131" points="43,15.5 43.6,16.2 42.9,15.6 	"/>
	<path class="st131" d="M42.4,15.2l-0.1,0.1l-0.4-0.2l0,0c0,0,0,0,0-0.1l0,0L42.4,15.2L42.4,15.2z"/>
	<path class="st129" d="M41.3,17.2c0.1,0,0.1,0.1,0.2,0.1C41.4,17.4,41.4,17.3,41.3,17.2C41.3,17.3,41.3,17.3,41.3,17.2z"/>
	<path class="st23" d="M44.5,14.5c0.1,0.1,0.5,0.2,0.5,0.7c0,0.6,0.1,1.4-0.5,1.8V14.5z"/>
	<g class="st132">
		<path class="st133" d="M43.2,17c-0.1,0.2-0.2,0.4-0.3,0.6s-0.3,0.4-0.4,0.5c0.2-0.2,0.3-0.3,0.4-0.5c0.1-0.1,0.1-0.2,0.2-0.3
			C43.1,17.2,43.2,17.1,43.2,17z"/>
	</g>
	<g class="st132">
		<path class="st133" d="M43.5,17.1c-0.1,0.2-0.2,0.4-0.3,0.6s-0.3,0.4-0.4,0.5c0.2-0.2,0.3-0.3,0.4-0.5c0.1-0.1,0.1-0.2,0.2-0.3
			C43.3,17.3,43.4,17.2,43.5,17.1z"/>
	</g>
	<g class="st132">
		<path class="st133" d="M43.6,17.2c-0.1,0.2-0.2,0.4-0.3,0.6s-0.3,0.4-0.4,0.5c0.2-0.2,0.3-0.3,0.4-0.5c0.1-0.1,0.1-0.2,0.2-0.3
			C43.5,17.4,43.6,17.3,43.6,17.2z"/>
	</g>
	<g class="st132">
		<path class="st133" d="M29.4,21.8c0.1-0.2,0.2-0.4,0.4-0.6c0.1-0.1,0.2-0.2,0.3-0.2c0.1-0.1,0.2-0.1,0.3-0.2
			c-0.1,0.1-0.2,0.1-0.3,0.2c-0.1,0.1-0.2,0.2-0.3,0.2c-0.1,0.1-0.2,0.2-0.2,0.3C29.5,21.5,29.4,21.6,29.4,21.8z"/>
	</g>
	<g class="st132">
		<path class="st133" d="M29.6,21.9c0.1-0.2,0.2-0.4,0.4-0.6c0.1-0.1,0.2-0.2,0.3-0.2c0.1-0.1,0.2-0.1,0.3-0.2
			c-0.1,0.1-0.2,0.1-0.3,0.2c-0.1,0.1-0.2,0.2-0.3,0.2c-0.1,0.1-0.2,0.2-0.2,0.3C29.7,21.7,29.6,21.8,29.6,21.9z"/>
	</g>
	<g class="st132">
		<path class="st133" d="M29.8,22c0.1-0.2,0.2-0.4,0.4-0.6c0.1-0.1,0.2-0.2,0.3-0.2c0.1-0.1,0.2-0.1,0.3-0.2
			c-0.1,0.1-0.2,0.1-0.3,0.2c-0.1,0.1-0.2,0.2-0.3,0.2c-0.1,0.1-0.2,0.2-0.2,0.3C30,21.8,29.9,21.9,29.8,22z"/>
	</g>
</g>
</svg>
