<?xml version="1.0" encoding="utf-8"?>
<!-- Generator: Adobe Illustrator 24.1.2, SVG Export Plug-In . SVG Version: 6.00 Build 0)  -->
<svg version="1.1" id="Слой_1" xmlns="http://www.w3.org/2000/svg" xmlns:xlink="http://www.w3.org/1999/xlink" x="0px" y="0px"
	 viewBox="0 0 60 68" style="enable-background:new 0 0 60 68;" xml:space="preserve">
<style type="text/css">
	.st0{fill:#00C9FF;}
	.st1{fill:#FFFFFF;}
	.st2{fill-rule:evenodd;clip-rule:evenodd;fill:#00C9FF;}
	.st3{fill:#3A3A3A;}
	.st4{fill:#443003;}
	.st5{fill:#FFCC2A;}
	.st6{fill:#3F2E00;}
	.st7{fill:#5E4506;}
	.st8{fill:#BA8B20;}
	.st9{fill:#FCD095;}
	.st10{fill:#E6E7E8;}
	.st11{fill:#074772;}
	.st12{fill:#C9C9C9;}
	.st13{fill:#135C84;}
	.st14{fill:#C4C4C4;}
	.st15{fill:#754C29;}
	.st16{fill:#EF4136;}
	.st17{fill:#FF0600;}
	.st18{fill:#603913;}
	.st19{fill:#7C7C7C;}
</style>
<g>
	<path class="st0" d="M30.5,56.5c0,0.3-0.2,0.5-0.5,0.5s-0.5-0.2-0.5-0.5c-0.1-3.2-1.8-5.2-4.8-6.1C14.5,48,7,38.9,7,28
		C7,15.3,17.3,5,30,5s23,10.3,23,23c0,10.9-7.5,20-17.7,22.4C32.3,51.3,30.7,53.4,30.5,56.5L30.5,56.5z"/>
</g>
<path class="st1" d="M30,68c-2.2,0-4-1.8-4-4c0-2.2,1.8-4,4-4s4,1.8,4,4C34,66.2,32.2,68,30,68z"/>
<path class="st2" d="M30,66c1.1,0,2-0.9,2-2s-0.9-2-2-2s-2,0.9-2,2S28.9,66,30,66z"/>
<g>
	<g>
		<g>
			<path class="st3" d="M28,25.5c0,1.7,1.2,3,2.6,3c1.5,0,2.6-1.3,2.6-3H28z"/>
		</g>
		<g>
			<path class="st3" d="M30.9,28.5v10h2.4V25.4C30.9,25.4,30.9,28.5,30.9,28.5z"/>
			<path class="st3" d="M28,25.4v13.1h2.4v-10C30.4,28.5,30.4,25.4,28,25.4z"/>
		</g>
		<rect x="33.8" y="13.1" class="st1" width="1.4" height="2.5"/>
		<g>
			<rect x="23.3" y="30.5" class="st4" width="6.3" height="1.2"/>
			<rect x="26.1" y="31.4" class="st5" width="0.8" height="1.3"/>
			<g>
				<g>
					<rect x="27.5" y="29.1" class="st6" width="0.1" height="1"/>
					<rect x="25.2" y="29.1" class="st6" width="0.1" height="1"/>
					<g>
						<g>
							<path class="st7" d="M29.6,30.7v-0.4c0-0.3-0.2-0.5-0.5-0.5h-5.4c-0.3,0-0.5,0.2-0.5,0.5v0.4l3.2,0.9L29.6,30.7z"/>
						</g>
						<g>
							<g>
								<g>
									<polygon class="st8" points="23.6,30.6 23.4,30.6 23.4,30.4 23.5,30.4 23.5,30.5 									"/>
								</g>
								<g>
									<path class="st8" d="M26.6,31.4L26.6,31.4l0.3-0.2v0.1L26.6,31.4z M26.3,31.4L26,31.3v-0.1L26.3,31.4L26.3,31.4z
										 M27.3,31.2L27.3,31.2l0.3-0.2v0.1L27.3,31.2z M25.6,31.2l-0.3-0.1V31L25.6,31.2L25.6,31.2z M27.9,31L27.9,31l0.3-0.2v0.1
										L27.9,31z M24.9,31l-0.3-0.1v-0.1L24.9,31L24.9,31z M28.6,30.8L28.6,30.8l0.3-0.2v0.1L28.6,30.8z M24.3,30.8L24,30.7v-0.1
										L24.3,30.8L24.3,30.8z"/>
								</g>
								<g>
									<polygon class="st8" points="29.3,30.6 29.2,30.6 29.4,30.5 29.4,30.4 29.5,30.4 29.5,30.6 									"/>
								</g>
							</g>
						</g>
						<g>
							<path class="st7" d="M26.8,31.7v0.5c0,0.1-0.1,0.1-0.1,0.1h-0.5c-0.1,0-0.1-0.1-0.1-0.1v-0.5l-2.8-0.8v3.2
								c0,0.3,0.2,0.5,0.5,0.5h5.4c0.3,0,0.5-0.2,0.5-0.5v-3.2L26.8,31.7z"/>
						</g>
						<g>
							<g>
								<g>
									<path class="st8" d="M28.9,34.5h-0.3v-0.1L28.9,34.5L28.9,34.5z M28.2,34.5h-0.3v-0.1L28.2,34.5L28.2,34.5z M27.6,34.5
										h-0.3v-0.1L27.6,34.5L27.6,34.5z M26.9,34.5h-0.3v-0.1L26.9,34.5L26.9,34.5z M26.3,34.5H26v-0.1L26.3,34.5L26.3,34.5z
										 M25.6,34.5h-0.3v-0.1L25.6,34.5L25.6,34.5z M25,34.5h-0.3v-0.1L25,34.5L25,34.5z M24.4,34.5H24v-0.1L24.4,34.5L24.4,34.5z
										 M29.2,34.4L29.2,34.4c0.1-0.1,0.1-0.2,0.2-0.3h0.1C29.4,34.3,29.3,34.4,29.2,34.4z M23.7,34.4c-0.1-0.1-0.2-0.1-0.2-0.3
										h0.1C23.6,34.2,23.6,34.3,23.7,34.4L23.7,34.4z M29.5,33.8L29.5,33.8l-0.1-0.3h0.1V33.8z M23.5,33.8L23.5,33.8l-0.1-0.3
										h0.1V33.8z M29.5,33.2L29.5,33.2l-0.1-0.3h0.1V33.2z M23.5,33.2L23.5,33.2l-0.1-0.3h0.1V33.2z M29.5,32.6L29.5,32.6
										l-0.1-0.3h0.1V32.6z M23.5,32.6L23.5,32.6l-0.1-0.3h0.1V32.6z M29.5,31.9L29.5,31.9l-0.1-0.3h0.1V31.9z M23.5,31.9
										L23.5,31.9l-0.1-0.3h0.1V31.9z M29.5,31.3L29.5,31.3L29.4,31h0.1V31.3z M23.5,31.2L23.5,31.2l-0.1-0.3h0.1V31.2z"/>
								</g>
							</g>
						</g>
					</g>
				</g>
				<g>
					<g>
						<g>
							<path class="st3" d="M27.7,29.1c0,0.1-0.1,0.1-0.1,0.1h-2.3c-0.1,0-0.1-0.1-0.1-0.1l0,0c0-0.1,0.1-0.1,0.1-0.1h2.3
								C27.7,29,27.7,29.1,27.7,29.1L27.7,29.1z"/>
						</g>
					</g>
				</g>
			</g>
		</g>
		<path class="st9" d="M25.9,29c0-0.3,0-1.5,0.1-2c0.1-0.4,1,0.1,1,0.1c0.1-0.2-0.3,1.2-0.1,1.2c0.2,0.1,0.7,0.2,0.3,1.2
			c-0.2,0.5-0.6,0.7-0.8,0.6C26,29.9,25.9,29.6,25.9,29z"/>
		<g>
			<g>
				<g>
					<g>
						<g>
							<polygon class="st10" points="25.9,28 25.9,27.7 27,27.6 27,28 							"/>
							<g>
								<g>
									<path class="st11" d="M27.2,27.8l0.4-7l0.8-3c-2.4,0-2.4,2.7-2.4,2.7l-0.4,7.3H27.2z"/>
								</g>
							</g>
						</g>
					</g>
					<g>
						<path class="st12" d="M35.2,12.9h-1.3c-0.2,0-0.3,0.1-0.3,0.3v2.7c0,0.2,0.1,0.3,0.3,0.3h1.3c0.2,0,0.3-0.1,0.3-0.3v-2.7
							C35.4,13,35.3,12.9,35.2,12.9z M35.1,15.4h-1.2v-2.2h1.2V15.4z"/>
					</g>
					<path class="st9" d="M36.4,14.7c0.1,0.3,0.5,1.4,0.5,1.9c0,0.4-1,0.2-1,0.3c-0.1,0.2-0.1-1.2-0.3-1.2s-0.7,0-0.7-1
						c0-0.6,0.3-0.9,0.6-0.8C36,13.9,36.2,14.1,36.4,14.7z"/>
					<polygon class="st10" points="35.8,16.4 35.8,16 36.9,15.8 37,16.3 					"/>
					<path class="st11" d="M37.1,16.2l-1.4,0.2l0.2,2.4c0,0-1.3-0.5-2.1-0.9c-0.3-0.2-0.8-0.3-0.8-0.3s0.8,0.5,0.8,2.7l2.5,0.2l0,0
						h0.1c0.6,0,1.3-0.7,1.2-1.1L37.1,16.2z"/>
				</g>
			</g>
		</g>
		<path class="st11" d="M32.1,17.3h-2.8c-1.4,0.4-2.6,1.2-2.6,2.2c0,0.2,1,1.1,1,1.1v6.9c0,0,2.3,0.3,2.9,0.3s3.2-0.3,3.2-0.3v-6.9
			c0,0,0-0.1,0.1-0.2c0.1,0,0.2-0.1,0.3-0.1c0.4,0.1,0.7-0.6,0.7-0.8C34.7,18.5,33.5,17.7,32.1,17.3z"/>
		<polygon class="st13" points="31.9,17.3 32.7,18.9 31.5,19.9 31.8,20.2 30.6,23.7 30.6,20.6 		"/>
		<polygon class="st13" points="29.3,17.2 28.5,18.9 29.8,19.8 29.4,20.2 30.6,23.6 30.6,20.5 		"/>
		<polygon class="st14" points="31.9,17.3 30.6,20.6 29.3,17.3 		"/>
		<path class="st9" d="M33,14.4L33,14.4c0-0.5,0-1.9-0.8-2.7l-1.5-0.5l-1.5,0.5c-0.8,0.8-0.9,2.1-0.8,2.7l0,0
			c-0.1,0-0.2,0.2-0.2,0.5s0.2,0.5,0.3,0.4c0,0,0.1,0,0.1-0.1c0.2,0.6,0.6,1.1,0.9,1.4c0,0,0.6,0.6,1.2,0.6s1.2-0.6,1.2-0.6
			c0.3-0.3,0.7-0.9,0.9-1.4l0.1,0.1c0.1,0,0.3-0.2,0.3-0.4S33.1,14.4,33,14.4z"/>
		<path class="st15" d="M28.7,13.4L28.7,13.4L28.7,13.4z"/>
		<g>
			<polygon class="st16" points="30.9,17.6 30.4,17.6 30.3,17.9 30.5,18.3 30.8,18.3 31,17.9 			"/>
		</g>
		<path class="st15" d="M28.7,13.4L28.7,13.4L28.7,13.4z"/>
		<polygon class="st17" points="31,17.4 30.3,17.4 30.1,17.8 30.5,18.3 30.8,18.3 31.1,17.8 		"/>
		<polygon class="st17" points="30.6,20.6 30.9,19.9 30.8,18.2 30.4,18.2 30.4,19.9 		"/>
		<path class="st18" d="M30.7,11.2c-2.3,0-2.4,2.4-2.3,3.2c0,0,0.2-0.5,0.2-0.7c0.1-0.1,0.2-0.3,0.2-0.3c0,0.1,0,0.3,0.1,0.3
			c0.2,0.1,0.6,0.4,1.2,0c0.1-0.1,0.3-0.2,0.6-0.3l0,0c0.2-0.1,0.3-0.2,0.5-0.2l0,0h0.1l0,0c0,0,0,0,0.1,0l0,0c0,0,0,0,0.1,0l0,0
			c0,0,0,0,0.1,0c0.2,0,0.4-0.1,0.6-0.1h0.1c0,0,0.6-0.1,0.8,1.3C33,13.6,33,11.2,30.7,11.2z"/>
		<g>
			<g>
				<g>
					<path class="st10" d="M29.7,18.3l-0.4-1.1l0.1-0.4l1.1,0.5L29.7,18.3z"/>
				</g>
			</g>
			<g>
				<g>
					<path class="st10" d="M30.7,17.4l1.1-0.5l0.1,0.4l-0.3,1.1L30.7,17.4z"/>
				</g>
			</g>
		</g>
		<path class="st19" d="M36.8,16L36.8,16C36.7,16.1,36.7,16,36.8,16C36.7,15.9,36.7,15.9,36.8,16C36.8,15.9,36.8,15.9,36.8,16z"/>
		<rect x="32.3" y="25" transform="matrix(0.6437 -0.7653 0.7653 0.6437 -8.0343 33.9632)" class="st13" width="0.3" height="1.2"/>
		
			<rect x="28.3" y="25.5" transform="matrix(0.7652 -0.6438 0.6438 0.7652 -9.7109 24.6457)" class="st13" width="1.2" height="0.3"/>
		<path class="st6" d="M28.4,38.5L28.4,38.5c-0.9,0.2-1.5,1.3-1.5,1.3h3.2v-1.1v-0.1v-0.1C30.1,38.5,28.4,38.5,28.4,38.5z"/>
		<path class="st6" d="M32.7,38.7L32.7,38.7L31,38.6v0.1v0.1v1.1h3.2C34.2,39.8,33.7,38.7,32.7,38.7z"/>
		<g>
			<polygon points="28.9,40 26.9,40 26.9,39.8 29.3,39.8 			"/>
			<rect x="29.3" y="39.8" width="0.8" height="0.2"/>
		</g>
		<g>
			<polygon points="32.2,40 34.2,40 34.2,39.8 31.8,39.8 			"/>
			<rect x="31" y="39.8" width="0.8" height="0.2"/>
		</g>
		<path class="st1" d="M34.7,15.8c0,0.1,0,0.1-0.1,0.1s-0.1,0-0.1-0.1s0-0.1,0.1-0.1C34.6,15.7,34.7,15.7,34.7,15.8z"/>
	</g>
	<g>
		<g>
			<path class="st1" d="M34.8,12.4c0,0.1-0.1,0.2-0.2,0.2c-0.1,0-0.2-0.1-0.2-0.2c0-0.1,0.1-0.2,0.2-0.2S34.8,12.3,34.8,12.4z"/>
		</g>
		<g>
			<path class="st1" d="M35.3,12.4L35.3,12.4c-0.1-0.3-0.4-0.6-0.7-0.6S34,12.1,34,12.4h-0.1c0-0.4,0.3-0.7,0.7-0.7
				C35,11.7,35.3,12,35.3,12.4z"/>
		</g>
		<g>
			<path class="st1" d="M35.7,12.4L35.7,12.4c-0.1-0.5-0.5-1-1.1-1s-1,0.4-1,1h-0.1c0-0.6,0.5-1.1,1.1-1.1
				C35.2,11.3,35.7,11.8,35.7,12.4z"/>
		</g>
		<g>
			<path class="st1" d="M36.1,12.4L36.1,12.4C36,11.6,35.4,11,34.6,11c-0.8,0-1.4,0.6-1.4,1.4H33c0-0.8,0.7-1.5,1.5-1.5
				S36.1,11.6,36.1,12.4z"/>
		</g>
	</g>
</g>
</svg>
